<?xml version="1.0" encoding="UTF-8" standalone="no"?>
<svg xmlns="http://www.w3.org/2000/svg" width="205" height="45" viewBox="0 0 205 45" version="1.1">
<g stroke="none" stroke-width="1" fill="#000000" fill-rule="evenodd">
<path d="M7.7 25.7L7.8 24.8C7.8 24.2 7.7 23.9 7.6 23.7 7.4 23.6 7 23.5 6.3 23.5 5.6 23.5 5 23.6 4.6 23.9 4.5 24 4.4 24.2 4.3 24.4 4.2 24.7 4.1 25 4.1 25.1 4.1 25.3 4.2 25.5 4.2 25.6 4.2 25.8 4.3 25.9 4.4 26 4.5 26.2 4.6 26.3 4.7 26.3 4.8 26.4 4.9 26.5 5.1 26.7 5.3 26.8 5.5 26.9 5.6 26.9 5.7 27 5.8 27.1 6.1 27.2 6.4 27.3 6.6 27.5 6.9 27.6 7.3 27.8 7.8 28.2 8.3 28.6 8.9 29.1 9.1 29.6 9.1 30.4 9.1 31.5 8.7 32.4 7.8 33.1 6.9 33.8 5.8 34.2 4.5 34.2 3.2 34.2 2.1 34 1.3 33.5 1.3 32.5 1.5 31.4 1.9 30.2L3.1 30.2C3 30.8 3 31.2 3 31.6 3 32.5 3.6 32.9 4.8 32.9 5.8 32.9 6.4 32.8 6.7 32.6 6.8 32.5 7 32.3 7.1 32 7.2 31.7 7.2 31.4 7.2 31.2 7.2 31 7.2 30.8 7.2 30.7 7.1 30.6 7 30.4 6.9 30.3 6.8 30.2 6.7 30.1 6.7 30 6.6 29.9 6.5 29.8 6.3 29.7 6 29.6 5.9 29.5 5.8 29.5 5.8 29.4 5.6 29.3 5.3 29.2 4.3 28.7 3.5 28.2 3.1 27.7 2.7 27.2 2.5 26.5 2.5 25.6 2.5 24.7 2.9 23.9 3.7 23.3 4.5 22.6 5.5 22.3 6.9 22.3 7.8 22.3 8.6 22.4 9.5 22.8 9.4 23.7 9.2 24.7 8.9 25.7L7.7 25.7ZM18.1 31.2L18.6 31.8C18 32.5 17.3 33 16.5 33.5 15.7 34 14.9 34.2 14.1 34.2 13.2 34.2 12.5 33.9 11.8 33.2 11.2 32.5 10.9 31.5 10.9 30.1 10.9 27.9 11.5 26.1 12.7 24.6 13.9 23 15.3 22.3 17 22.3 17.7 22.3 18.3 22.5 18.7 22.8 19.1 23.1 19.3 23.7 19.3 24.4 19.3 25.6 18.6 26.7 17.2 27.4 16 28.1 14.6 28.6 13 28.8 13 29 13 29.3 13 29.7 13 30.7 13.2 31.4 13.5 31.8 13.8 32.3 14.3 32.5 15.1 32.5 15.9 32.5 16.8 32 18.1 31.2L18.1 31.2ZM13.2 27.8C14.4 27.5 15.4 27.1 16.1 26.5 16.8 26 17.2 25.4 17.2 24.8 17.2 24 16.8 23.6 16.1 23.6 15.6 23.6 15.1 23.8 14.8 24.1 14.4 24.5 14.1 25 13.8 25.7 13.5 26.4 13.3 27.1 13.2 27.8L13.2 27.8ZM28.5 34.2C27.7 34.2 27.3 33.7 27.3 32.5 27.3 32 27.7 30 28.7 26.6 28.9 25.7 29 25.1 29 24.7 29 24.2 28.7 23.9 28.2 23.9 27.6 23.9 27 24.2 26.3 24.7 25.7 25.2 25 25.9 24.4 26.8 23.8 27.7 23.3 28.7 22.9 30 22.6 31.3 22.4 32.6 22.4 33.9 21.6 33.9 21 34 20.4 34.2L20 33.9C20.3 33 20.6 31.9 20.8 30.7L23.2 17.9C23.3 17.7 23.3 17.6 23.3 17.4 23.3 17.1 22.7 16.8 21.4 16.6L21.6 15.8C23.4 15.6 24.6 15.5 25.4 15.5L25.6 15.7C25.5 16.4 25.5 17.1 25.3 17.9L24.5 22.1C24.4 22.5 24.3 23 24 23.9 23.7 24.7 23.5 25.4 23.3 26L23.1 26.9 23.3 27C24 25.5 24.9 24.4 25.9 23.5 26.9 22.7 28 22.3 29.1 22.3 30.4 22.3 31.1 22.9 31.1 24.2 31.1 24.7 30.8 26.1 30.2 28.4 29.6 30.8 29.3 32.1 29.3 32.4 29.3 32.7 29.4 32.8 29.7 32.8 29.9 32.8 30.4 32.6 31.1 32.2L31.6 32.9C30.3 33.8 29.3 34.2 28.5 34.2L28.5 34.2ZM40.9 25L39.3 24.6C39.1 24.6 38.9 24.8 38.6 25.2 37.9 25.9 37.3 27.1 36.5 28.8 35.8 30.5 35.4 32.2 35.4 33.9 34.7 33.9 34 34 33.4 34.2L33.1 33.9C33.4 33 33.6 31.9 33.9 30.7L34.9 25C34.9 24.8 34.9 24.6 34.9 24.4 34.9 24.1 34.3 23.9 33.1 23.6L33.2 22.9C35 22.6 36.3 22.5 37 22.5L37.2 22.8 36.2 26.9 36.4 27C36.8 26 37.2 25.2 37.8 24.5 38.8 23 39.8 22.3 40.8 22.3 41.6 22.3 41.9 22.5 41.9 22.8 41.9 23.3 41.8 23.8 41.6 24.2 41.3 24.7 41.1 25 40.9 25L40.9 25ZM47.6 34.9C47 35.6 46.6 36.4 46.6 37.3 46.6 38.1 47 38.8 47.7 39.3 48.4 39.8 49.7 40.1 51.4 40.1 53.1 40.1 54.5 39.7 55.4 39 56.4 38.3 56.9 37.6 56.9 36.8 56.9 36.1 56.5 35.7 55.7 35.5 54.9 35.4 53.7 35.3 51.9 35.3 50.2 35.2 48.8 35.1 47.6 34.9L47.6 34.9ZM44.5 31.8C44.5 30.8 44.9 29.9 45.6 29 46.1 28.4 46.7 27.8 47.3 27.3 47 27.2 46.6 27 46.3 26.7 45.1 25.8 44.5 24.3 44.5 22.4 44.5 20.5 45.2 19 46.5 18 47.8 16.9 49.5 16.4 51.4 16.4 53.2 16.4 54.7 16.8 55.8 17.5 57.4 16.8 58.9 16.4 60.3 16.4 60.6 16.8 60.7 17.3 60.7 17.8 60.7 18.4 60.7 18.8 60.6 19 59.8 18.8 58.9 18.7 58 18.7L57.1 18.7C57.7 19.6 58.1 20.8 58.1 22.2 58.1 24.1 57.4 25.6 56.1 26.6 54.8 27.7 53.1 28.2 51.2 28.2 50.1 28.2 49.1 28 48.2 27.7 47.5 28.6 47.2 29.4 47.2 30.2 47.2 30.9 47.6 31.4 48.4 31.5 49.1 31.6 49.9 31.7 50.8 31.7 51.7 31.7 52.4 31.7 52.9 31.7 53.4 31.7 54 31.8 54.8 31.8 55.6 31.9 56.2 32 56.6 32.2 57.1 32.4 57.5 32.6 58 32.8 58.9 33.4 59.3 34.2 59.3 35.5 59.3 37.2 58.5 38.7 56.7 40 55 41.3 52.7 41.9 49.8 41.9 45.8 41.9 43.9 40.8 43.9 38.5 43.9 37.7 44.1 37 44.6 36.4 45 35.8 45.7 35.2 46.6 34.5 45.2 34.1 44.5 33.2 44.5 31.8L44.5 31.8ZM51.4 26.4C53.6 26.4 54.8 25 54.8 22.3 54.8 19.6 53.6 18.2 51.2 18.2 49 18.2 47.8 19.6 47.8 22.3 47.8 25 49 26.4 51.4 26.4L51.4 26.4ZM65.1 29.5L65.1 20C65.1 19.5 64.9 19.2 64.6 18.9 64.2 18.7 63.4 18.5 62.4 18.3L62.6 17.1C65.2 16.8 67 16.6 68 16.6L68.4 17 68.4 28C68.4 30.5 69.3 31.7 71.2 31.7 72.4 31.7 73.7 31.3 75 30.3 75.3 30.1 75.5 29.9 75.6 29.7 75.7 29.5 75.8 29.2 75.8 28.7L75.8 20C75.8 19.5 75.6 19.2 75.2 18.9 74.8 18.7 74.1 18.5 73 18.3L73.3 17.1C75.8 16.8 77.6 16.6 78.6 16.6L79 17 79 30.4C79 31.1 79.2 31.5 79.5 31.8 79.8 32 80.5 32.2 81.8 32.5L81.5 33.6 76.9 34.1C76.7 34.2 76.6 33.9 76.4 33.2 76.2 32.5 76.1 32 76.1 31.5L76.1 31.3 75.8 31.2 75.4 31.7C73.9 33.4 72 34.3 69.8 34.3 68.4 34.3 67.2 33.9 66.4 33.2 65.5 32.4 65.1 31.2 65.1 29.5L65.1 29.5ZM85.6 29.1L85.6 19.2 83.3 19.2 83.2 17.6 84.9 17.2C85.4 17.1 85.7 16.8 85.8 16.4 86 16 86.3 14.6 86.7 12.4L88.9 12.1 88.9 17 93.9 17 93.6 18.7 88.9 19.2 88.9 28C88.9 30.5 89.7 31.7 91.2 31.7 92.1 31.7 93 31.4 93.9 30.7L94.7 31.7C93.4 33.4 91.8 34.3 89.9 34.3 88.6 34.3 87.5 33.9 86.8 32.9 86 32 85.6 30.7 85.6 29.1L85.6 29.1ZM96.7 29.6C96.7 27.8 97.5 26.4 99 25.5 100.5 24.7 103 24.2 106.5 24.2L106.5 23C106.5 19.9 105.4 18.3 103.1 18.3 102 18.3 101.4 18.5 101.1 18.8 100.8 19.1 100.5 20.1 100.2 21.9L98.2 21.7C98.1 20.9 98 20.1 98 19.3 98 18.5 98 18 98 17.8 99.4 16.9 101.3 16.4 103.6 16.4 105.9 16.4 107.5 16.9 108.4 17.8 109.3 18.7 109.7 20.1 109.7 22.2L109.7 30.4C109.7 31.1 109.9 31.5 110.2 31.8 110.5 32 111.2 32.2 112.5 32.5L112.3 33.6 107.9 34.1C107.7 34.1 107.4 33.9 107.2 33.4 106.9 33 106.8 32.5 106.8 32.1 106.8 31.7 106.8 31.5 106.8 31.3L106.5 31.2 106.1 31.8C105 33.5 103.4 34.3 101.5 34.3 100.1 34.3 99 33.9 98.1 33.1 97.2 32.2 96.7 31.1 96.7 29.6L96.7 29.6ZM100.2 29.2C100.2 30.1 100.4 30.8 100.9 31.2 101.3 31.7 102 31.9 102.8 31.9 103.7 31.9 104.6 31.5 105.7 30.7 106.2 30.2 106.5 29.8 106.5 29.3L106.5 25.8C104.3 25.8 102.7 26.1 101.7 26.6 100.7 27.1 100.2 28 100.2 29.2L100.2 29.2ZM116.6 19.5C117.2 18.5 118.1 17.8 119.2 17.2 120.4 16.7 121.8 16.4 123.5 16.4 125.3 16.4 127 16.8 128.6 17.4 128.7 17.6 128.7 18.2 128.7 19.3 128.7 20.3 128.5 21.4 128.2 22.4L126.2 22.6C125.8 20.2 125.5 18.9 125.1 18.7 124.6 18.5 123.7 18.4 122.4 18.4 121.1 18.4 120.2 18.9 119.6 19.7 118.8 21 118.3 22.8 118.3 25.2 118.3 27.5 118.8 29.2 119.9 30.3 120.9 31.3 122.2 31.9 123.9 31.9 125.5 31.9 127.1 31.3 128.6 30.3L129.6 31.5C127.7 33.4 125.4 34.3 122.8 34.3 120.2 34.3 118.2 33.5 116.8 31.9 115.5 30.2 114.8 28.2 114.8 25.7 114.8 23.3 115.4 21.2 116.6 19.5L116.6 19.5ZM131.9 34L131.7 32.6C132.9 32.4 133.6 32.1 133.8 31.9 134.1 31.6 134.2 31.2 134.2 30.5L134.2 9.6C134.2 9.1 134 8.8 133.6 8.5 133.3 8.3 132.5 8.1 131.5 7.9L131.7 6.7C134.3 6.4 136 6.2 137.1 6.2L137.5 6.6 137.5 16.7C137.5 18 137.4 18.9 137.2 19.5L137.5 19.6 137.9 19.1C139.4 17.3 141.3 16.4 143.5 16.4 145.1 16.4 146.4 16.9 147.3 17.8 148.2 18.8 148.6 20.1 148.6 21.7L148.6 31.4C148.6 31.7 148.7 31.9 148.8 32 148.9 32.1 149.1 32.1 149.3 32.2L151.1 32.6 151 34 143.2 34 143 32.6C144.1 32.4 144.8 32.1 145 31.9 145.3 31.6 145.4 31.2 145.4 30.5L145.4 22.8C145.4 21.6 145.2 20.7 144.7 20 144.3 19.4 143.5 19 142.2 19 141 19 139.6 19.5 138.3 20.4 138 20.6 137.8 20.9 137.6 21.1 137.5 21.3 137.5 21.6 137.5 22.2L137.5 31.4C137.5 31.7 137.5 31.9 137.7 32 137.8 32.1 138 32.1 138.2 32.2L139.8 32.6 139.6 34 131.9 34ZM155 29.1L155 19.2 152.6 19.2 152.5 17.6 154.3 17.2C154.7 17.1 155 16.8 155.2 16.4 155.3 16 155.6 14.6 156 12.4L158.2 12.1 158.2 17 163.2 17 162.9 18.7 158.2 19.2 158.2 28C158.2 30.5 159 31.7 160.5 31.7 161.4 31.7 162.3 31.4 163.3 30.7L164 31.7C162.7 33.4 161.1 34.3 159.3 34.3 157.9 34.3 156.9 33.9 156.1 32.9 155.4 32 155 30.7 155 29.1L155 29.1ZM167.7 31.8C166.4 30.2 165.7 28.1 165.7 25.6 165.7 23 166.5 20.9 168.1 19.1 169.6 17.3 171.6 16.4 174.1 16.4 178.2 16.4 180.4 18.9 180.5 24L179.6 24.6 169.2 25.2C169.2 29.7 171.1 31.9 174.9 31.9 176.5 31.9 178.1 31.5 179.7 30.7L180.5 31.8C179.7 32.5 178.6 33.1 177.4 33.6 176.1 34.1 174.8 34.3 173.4 34.3 171 34.3 169.1 33.5 167.7 31.8L167.7 31.8ZM169.3 23.6L176.7 22.9C177 22.9 177.1 22.7 177.1 22.2 177.1 21.2 176.8 20.3 176.2 19.5 175.7 18.7 174.7 18.3 173.4 18.3 172 18.3 171.1 18.8 170.4 19.7 169.8 20.6 169.4 21.9 169.3 23.6L169.3 23.6ZM183.4 34L183.2 32.6C184.4 32.4 185.1 32.1 185.4 31.9 185.6 31.6 185.7 31.2 185.7 30.5L185.7 20.2C185.7 19.6 185.6 19.1 185.3 18.9 185 18.6 184.2 18.4 183 18.1L183.2 17 187.9 16.5C188 16.5 188.2 16.8 188.4 17.5 188.6 18.2 188.6 18.8 188.6 19.3L188.6 19.5 188.9 19.6 189.4 19.1C190.9 17.3 192.7 16.4 194.9 16.4 196.4 16.4 197.7 16.9 198.5 17.8 199.4 18.7 199.9 20 199.9 21.7L199.9 31.4C199.9 31.7 199.9 31.9 200.1 32 200.2 32.1 200.4 32.1 200.6 32.2L202.4 32.6 202.2 34 194.5 34 194.3 32.6C195.4 32.4 196 32.1 196.3 31.9 196.5 31.6 196.6 31.2 196.6 30.5L196.6 22.8C196.6 21.6 196.4 20.7 196 20.1 195.6 19.4 194.8 19 193.6 19 192.4 19 191.2 19.5 189.8 20.4 189.5 20.6 189.4 20.7 189.3 20.8 189.1 21 189 21.4 189 22.1L189 31.4C189 31.6 189 31.8 189.1 31.9 189.2 32 189.4 32.1 189.7 32.2L191.3 32.6 191.1 34 183.4 34Z"/>
</g>
</svg>