<?xml version="1.0" encoding="UTF-8" standalone="no"?>
<svg width="118px" height="153px" viewBox="0 0 118 153" version="1.1" xmlns="http://www.w3.org/2000/svg" xmlns:xlink="http://www.w3.org/1999/xlink">
    <defs>
        <rect id="path-1" x="2" y="2" width="100" height="135" rx="1"></rect>
    </defs>
    <g id="Page-1" stroke="none" stroke-width="1" fill="none" fill-rule="evenodd">
        <g id="pe6">
            <g id="Last-Page-+-Second-Page" transform="translate(11.000000, 10.000000)" stroke="#FFFFFF" stroke-width="4" stroke-linecap="round" stroke-linejoin="round">
                <path d="M6,141 L104.5,141 L104.5,8" id="Last-Page"></path>
                <path d="M0,134 L97.5,134 L97.5,0" id="Second-Page"></path>
            </g>
            <mask id="mask-2" fill="white">
                <use xlink:href="#path-1"></use>
            </mask>
            <use id="Page" stroke="#FFFFFF" stroke-width="4" stroke-linecap="round" stroke-linejoin="round" xlink:href="#path-1"></use>
            <polygon id="Star-1" fill="#FFFFFF" mask="url(#mask-2)" points="33 74.25 29.1793959 76.2586105 29.9090663 72.0043052 26.8181326 68.9913895 31.0896979 68.3706948 33 64.5 34.9103021 68.3706948 39.1818674 68.9913895 36.0909337 72.0043052 36.8206041 76.2586105 "></polygon>
            <polygon id="Star-1-Copy" fill="#FFFFFF" mask="url(#mask-2)" points="13 81.25 9.17939586 83.2586105 9.90906632 79.0043052 6.81813264 75.9913895 11.0896979 75.3706948 13 71.5 14.9103021 75.3706948 19.1818674 75.9913895 16.0909337 79.0043052 16.8206041 83.2586105 "></polygon>
            <polygon id="Star-1-Copy-2" fill="#FFFFFF" mask="url(#mask-2)" points="54 79.25 50.1793959 81.2586105 50.9090663 77.0043052 47.8181326 73.9913895 52.0896979 73.3706948 54 69.5 55.9103021 73.3706948 60.1818674 73.9913895 57.0909337 77.0043052 57.8206041 81.2586105 "></polygon>
            <polygon id="Star-1-Copy-3" fill="#FFFFFF" mask="url(#mask-2)" points="77 112.25 73.1793959 114.25861 73.9090663 110.004305 70.8181326 106.99139 75.0896979 106.370695 77 102.5 78.9103021 106.370695 83.1818674 106.99139 80.0909337 110.004305 80.8206041 114.25861 "></polygon>
            <polygon id="Star-1-Copy-4" fill="#FFFFFF" mask="url(#mask-2)" points="70 93.25 66.1793959 95.2586105 66.9090663 91.0043052 63.8181326 87.9913895 68.0896979 87.3706948 70 83.5 71.9103021 87.3706948 76.1818674 87.9913895 73.0909337 91.0043052 73.8206041 95.2586105 "></polygon>
            <polygon id="Star-1-Copy-5" fill="#FFFFFF" mask="url(#mask-2)" points="75 132.25 71.1793959 134.25861 71.9090663 130.004305 68.8181326 126.99139 73.0896979 126.370695 75 122.5 76.9103021 126.370695 81.1818674 126.99139 78.0909337 130.004305 78.8206041 134.25861 "></polygon>
            <path d="M31.855,50.47 L31.855,35.53 C31.855,35.0099974 31.7300013,34.645001 31.48,34.435 C31.2299988,34.2249989 30.5950051,34.020001 29.575,33.82 L29.755,32.86 C32.2350124,32.5999987 33.5349994,32.47 33.655,32.47 C33.7750006,32.47 33.9199992,32.7349973 34.09,33.265 C34.2600009,33.7950026 34.345,34.259998 34.345,34.66 L34.345,34.96 L34.585,35.05 L34.885,34.66 C36.0450058,33.1599925 37.4349919,32.41 39.055,32.41 C40.6750081,32.41 42.0049948,33.0549935 43.045,34.345 C44.0850052,35.6350064 44.605,37.3999888 44.605,39.64 C44.605,41.8800112 44.0150059,43.7199928 42.835,45.16 C41.6549941,46.6000072 40.0050106,47.32 37.885,47.32 C36.3849925,47.32 35.3050033,47.0600026 34.645,46.54 L34.435,46.63 C34.5150004,47.0700022 34.555,47.5099978 34.555,47.95 L34.555,51.19 C34.555,51.4500013 34.6099995,51.6149996 34.72,51.685 C34.8300006,51.7550003 34.9749991,51.7999999 35.155,51.82 L37.885,52.18 L37.765,53.35 L29.935,53.35 L29.755,52.18 C30.7350049,51.979999 31.329999,51.775001 31.54,51.565 C31.7500011,51.3549989 31.855,50.9900026 31.855,50.47 L31.855,50.47 Z M34.555,44.14 C35.3750041,45.1200049 36.6549913,45.61 38.395,45.61 C39.2550043,45.61 39.9349975,45.3300028 40.435,44.77 C41.2750042,43.8299953 41.695,42.3650099 41.695,40.375 C41.695,38.38499 41.3800032,36.9200047 40.75,35.98 C40.1199969,35.0399953 39.3250048,34.57 38.365,34.57 C37.4049952,34.57 36.4050052,34.9099966 35.365,35.59 C34.8249973,35.9500018 34.555,36.4099972 34.555,36.97 L34.555,44.14 Z M48.37,45.25 C47.2599944,43.8699931 46.705,42.1250105 46.705,40.015 C46.705,37.9049894 47.3449936,36.1100074 48.625,34.63 C49.9050064,33.1499926 51.5949895,32.41 53.695,32.41 C57.095017,32.41 58.8749992,34.4999791 59.035,38.68 L58.255,39.25 L49.555,39.73 C49.555,43.4300185 51.1349842,45.28 54.295,45.28 C55.6750069,45.28 57.0249934,44.9400034 58.345,44.26 L58.975,45.25 C58.3149967,45.7900027 57.4550053,46.2699979 56.395,46.69 C55.3349947,47.1100021 54.2250058,47.32 53.065,47.32 C51.0449899,47.32 49.4800055,46.6300069 48.37,45.25 L48.37,45.25 Z M49.645,38.35 L55.855,37.81 C56.055001,37.7899999 56.155,37.6000018 56.155,37.24 C56.155,36.3599956 55.9200024,35.6000032 55.45,34.96 C54.9799977,34.3199968 54.1850056,34 53.065,34 C51.9449944,34 51.1300026,34.3749963 50.62,35.125 C50.1099975,35.8750037 49.7850007,36.949993 49.645,38.35 L49.645,38.35 Z M72.775,36.175 C73.8750055,37.3450058 74.425,38.8549907 74.425,40.705 C74.425,42.5550092 73.8150061,44.1199936 72.595,45.4 C71.3749939,46.6800064 69.77001,47.32 67.78,47.32 C65.7899901,47.32 64.2250057,46.6300069 63.085,45.25 C61.9449943,43.8699931 61.375,42.0100117 61.375,39.67 C61.375,36.4299838 62.4049897,33.6300118 64.465,31.27 C66.5250103,28.9099882 69.0149854,27.3700036 71.935,26.65 L72.535,27.88 C68.134978,29.7200092 65.5050043,32.5299811 64.645,36.31 L64.885,36.4 C65.9050051,35.0799934 67.1999921,34.42 68.77,34.42 C70.3400078,34.42 71.6749945,35.0049941 72.775,36.175 L72.775,36.175 Z M70.435,45.01 C71.1950038,44.1899959 71.575,42.9900079 71.575,41.41 C71.575,39.8299921 71.2850029,38.6150043 70.705,37.765 C70.1249971,36.9149958 69.3950044,36.49 68.515,36.49 C68.0949979,36.49 67.5500034,36.5599993 66.88,36.7 C66.2099967,36.8400007 65.6550022,37.0599985 65.215,37.36 C64.5549967,37.8000022 64.225,38.4899953 64.225,39.43 C64.225,43.7100214 65.6149861,45.85 68.395,45.85 C69.2350042,45.85 69.9149974,45.5700028 70.435,45.01 L70.435,45.01 Z" fill="#FFFFFF" mask="url(#mask-2)"></path>
        </g>
    </g>
</svg>