<?xml version="1.0" encoding="UTF-8" standalone="no"?>
<svg width="118px" height="153px" viewBox="0 0 118 153" version="1.1" xmlns="http://www.w3.org/2000/svg" xmlns:xlink="http://www.w3.org/1999/xlink">
    <title>wd1</title>
    <defs>
        <rect id="path-1" x="2" y="2" width="100" height="135" rx="1"></rect>
    </defs>
    <g id="Page-1" stroke="none" stroke-width="1" fill="none" fill-rule="evenodd">
        <g id="wd1">
            <g id="Last-Page-+-Second-Page" transform="translate(11.000000, 10.000000)" stroke="#FFFFFF" stroke-width="4" stroke-linecap="round" stroke-linejoin="round">
                <path d="M6,141 L104.5,141 L104.5,8" id="Last-Page"></path>
                <path d="M0,134 L97.5,134 L97.5,0" id="Second-Page"></path>
            </g>
            <mask id="mask-2" fill="white">
                <use xlink:href="#path-1"></use>
            </mask>
            <use id="Page" stroke="#FFFFFF" stroke-width="4" stroke-linecap="round" stroke-linejoin="round" xlink:href="#path-1"></use>
            <g id="house" mask="url(#mask-2)" stroke="#FFFFFF" stroke-width="3">
                <g transform="translate(-36.000000, 60.000000)">
                    <polygon id="Triangle-1" stroke-linecap="round" stroke-linejoin="round" points="45.5 0 80 20 11 20 "></polygon>
                    <path d="M71,72 L71,33" id="Line" stroke-linecap="square"></path>
                    <path d="M79.6900253,26 L0,26" id="Line-Copy-6" stroke-linecap="square"></path>
                    <path d="M60,72 L60,33" id="Line-Copy" stroke-linecap="square"></path>
                    <path d="M50,72 L50,33" id="Line-Copy-2" stroke-linecap="square"></path>
                    <path d="M40,72 L40,33" id="Line-Copy-3" stroke-linecap="square"></path>
                </g>
            </g>
            <g id="vote" mask="url(#mask-2)" stroke-linecap="round" stroke-linejoin="round">
                <g transform="translate(49.000000, 75.000000)">
                    <path d="M8,66 L8,5 L52,5 L52,66" id="Rectangle-2" stroke="#FFFFFF" stroke-width="3" transform="translate(30.000000, 35.500000) rotate(-15.000000) translate(-30.000000, -35.500000) "></path>
                    <g id="x" stroke="none" stroke-width="1" fill-rule="evenodd" transform="translate(28.000000, 25.000000) rotate(-60.000000) translate(-28.000000, -25.000000) translate(18.000000, 15.000000)">
                        <path d="M10,20 L10,0" id="Line" stroke="#FFFFFF" stroke-width="4"></path>
                        <path d="M20,10 L0,10" id="Line-Copy-5" stroke="#FFFFFF" stroke-width="4"></path>
                    </g>
                </g>
            </g>
            <path d="M33.21,46.27 L28.86,34.06 C28.7199993,33.6799981 28.5800007,33.4400005 28.44,33.34 C28.2999993,33.2399995 27.9000033,33.1200007 27.24,32.98 L27.42,31.81 L32.97,31.81 L33.09,32.98 L31.77,33.4 C31.6299993,33.4200001 31.56,33.4899994 31.56,33.61 C31.56,33.6300001 31.5999996,33.7599988 31.68,34 L34.44,42.64 C34.5200004,42.840001 34.56,43.0799986 34.56,43.36 L34.56,43.48 L34.8,43.48 C34.8,43.2599989 34.8799992,42.9600019 35.04,42.58 L37.77,35.77 L37.2,34.06 C37.0799994,33.6999982 36.9550007,33.4650005 36.825,33.355 C36.6949994,33.2449995 36.3800025,33.1200007 35.88,32.98 L36.06,31.81 L40.98,31.81 L41.1,32.98 L39.78,33.4 C39.6399993,33.4200001 39.57,33.4899994 39.57,33.61 C39.57,33.6300001 39.6099996,33.7599988 39.69,34 L42.42,42.64 C42.5000004,42.8800012 42.54,43.1199988 42.54,43.36 L42.54,43.48 L42.78,43.48 C42.78,43.3599994 42.8599992,43.0600024 43.02,42.58 L45.75,34.75 C45.8700006,34.4299984 45.93,34.2150005 45.93,34.105 C45.93,33.9949995 45.9250001,33.9150003 45.915,33.865 C45.905,33.8149997 45.8800002,33.7650002 45.84,33.715 C45.7999998,33.6649998 45.7650002,33.6250002 45.735,33.595 C45.7049999,33.5649999 45.6550004,33.5300002 45.585,33.49 C45.5149997,33.4499998 45.4550003,33.4150002 45.405,33.385 C45.3549998,33.3549998 45.2800005,33.3200002 45.18,33.28 C45.0799995,33.2399998 44.9950004,33.2100001 44.925,33.19 C44.8549997,33.1699999 44.7600006,33.1350003 44.64,33.085 C44.5199994,33.0349997 44.4200004,33.0000001 44.34,32.98 L44.52,31.81 L49.44,31.81 L49.56,32.98 C48.9199968,33.1400008 48.5300007,33.2449998 48.39,33.295 C48.2499993,33.3450003 48.1700001,33.4099996 48.15,33.49 L43.17,46.27 L41.22,46.27 L38.76,38.71 C38.6599995,38.4099985 38.61,38.1400012 38.61,37.9 L38.37,37.9 C38.37,38.1200011 38.3100006,38.3799985 38.19,38.68 L35.16,46.27 L33.21,46.27 Z M60.42,44.02 C59.2599942,45.5200075 57.8700081,46.27 56.25,46.27 C54.6299919,46.27 53.3000052,45.6250065 52.26,44.335 C51.2199948,43.0449936 50.7,41.2800112 50.7,39.04 C50.7,36.7999888 51.2899941,34.9600072 52.47,33.52 C53.6500059,32.0799928 55.2999894,31.36 57.42,31.36 C58.8800073,31.36 59.9599965,31.6199974 60.66,32.14 L60.87,32.05 C60.7899996,31.7299984 60.75,31.2900028 60.75,30.73 L60.75,25.69 C60.75,25.2699979 60.5450021,24.9550011 60.135,24.745 C59.724998,24.534999 58.9900053,24.3600007 57.93,24.22 L58.11,23.26 C60.2500107,22.9799986 61.919994,22.84 63.12,22.84 L63.45,23.14 L63.45,43.06 C63.45,43.5800026 63.5749988,43.9449989 63.825,44.155 C64.0750013,44.3650011 64.7099949,44.569999 65.73,44.77 L65.55,45.73 L61.95,46.12 C61.749999,46.12 61.5300012,45.920002 61.29,45.52 C61.0499988,45.119998 60.93,44.7600016 60.93,44.44 C60.93,44.1199984 60.9399999,43.8800008 60.96,43.72 L60.72,43.63 L60.42,44.02 Z M54.555,42.7 C55.1850032,43.6400047 55.9799952,44.11 56.94,44.11 C57.9000048,44.11 58.8999948,43.7700034 59.94,43.09 C60.4800027,42.7299982 60.75,42.2700028 60.75,41.71 L60.75,34.54 C59.9299959,33.5599951 58.6500087,33.07 56.91,33.07 C56.0499957,33.07 55.3700025,33.3499972 54.87,33.91 C54.0299958,34.8500047 53.61,36.3149901 53.61,38.305 C53.61,40.29501 53.9249969,41.7599953 54.555,42.7 L54.555,42.7 Z M68.22,46 L68.04,44.83 C69.1800057,44.6499991 69.949998,44.4400012 70.35,44.2 C70.750002,43.9599988 70.95,43.6000024 70.95,43.12 L70.95,33.91 C70.95,32.909995 70.9050005,32.310001 70.815,32.11 C70.7249996,31.909999 70.485002,31.81 70.095,31.81 C69.7049981,31.81 69.0300048,31.8599995 68.07,31.96 L67.83,30.82 C68.430003,30.5599987 69.329994,30.2950014 70.53,30.025 C71.730006,29.7549987 72.6599967,29.6100001 73.32,29.59 L73.65,29.89 L73.65,43.84 C73.65,44.0800012 73.7049995,44.2349997 73.815,44.305 C73.9250006,44.3750004 74.0699991,44.4299998 74.25,44.47 L76.56,44.83 L76.44,46 L68.22,46 Z" fill="#FFFFFF" mask="url(#mask-2)"></path>
        </g>
    </g>
</svg>