<?xml version="1.0" encoding="UTF-8" standalone="no"?>
<svg width="118px" height="153px" viewBox="0 0 118 153" version="1.1" xmlns="http://www.w3.org/2000/svg" xmlns:xlink="http://www.w3.org/1999/xlink">
    <title>wd10</title>
    <defs>
        <rect id="path-1" x="2" y="2" width="100" height="135" rx="1"></rect>
    </defs>
    <g id="Page-1" stroke="none" stroke-width="1" fill="none" fill-rule="evenodd">
        <g id="wd10">
            <g id="Last-Page-+-Second-Page" transform="translate(11.000000, 10.000000)" stroke="#FFFFFF" stroke-width="4" stroke-linecap="round" stroke-linejoin="round">
                <path d="M6,141 L104.5,141 L104.5,8" id="Last-Page"></path>
                <path d="M0,134 L97.5,134 L97.5,0" id="Second-Page"></path>
            </g>
            <mask id="mask-2" fill="white">
                <use xlink:href="#path-1"></use>
            </mask>
            <use id="Page" stroke="#FFFFFF" stroke-width="4" stroke-linecap="round" stroke-linejoin="round" xlink:href="#path-1"></use>
            <g id="ball" mask="url(#mask-2)" stroke="#FFFFFF" stroke-width="2">
                <g transform="translate(63.000000, 92.000000)">
                    <path d="M30.3283855,13.5669327 C30.3870494,14.1097848 30.4171482,14.6612007 30.4171482,15.2196465 C30.4171482,22.0675928 25.8912167,27.8584511 19.6674456,29.7641297 L19.6674456,29.7641297 C19.3198047,21.6727723 12.6500615,15.2196465 4.47311003,15.2196465 C2.92159276,15.2196465 1.42433848,15.451974 0.0142385714,15.8837375 C0.00477853136,15.6635546 0,15.4421586 0,15.2196465 C0,7.39501627 5.90901286,0.950509922 13.5080928,0.105073291 C14.3317796,7.72714376 20.7868865,13.6609336 28.6279042,13.6609336 C29.2027375,13.6609336 29.7701222,13.6290424 30.3283855,13.5669327 L30.3283855,13.5669327 Z" id="Oval-45"></path>
                    <path d="M29.4337635,10.9025691 C28.7809679,4.86185834 23.6651095,0.159158674 17.4508766,0.159158674 C16.9953047,0.159158674 16.5456359,0.184433385 16.1031961,0.233657083 C16.7559917,6.27436789 21.8718502,10.9770676 28.086083,10.9770676 C28.541655,10.9770676 28.9913237,10.9517928 29.4337635,10.9025691 L29.4337635,10.9025691 Z" id="Oval-45-Copy-6"></path>
                    <path d="M16.707892,29.9186865 C15.5430107,30.2753656 14.3061314,30.4672909 13.0244255,30.4672909 C6.26945917,30.4672909 0.75959514,25.1363742 0.472409588,18.452117 C1.63729083,18.0954379 2.87417017,17.9035125 4.15587606,17.9035125 C10.9108424,17.9035125 16.4207064,23.2344292 16.707892,29.9186865 Z" id="Oval-45-Copy-3"></path>
                </g>
            </g>
            <g id="book" mask="url(#mask-2)" stroke-linecap="round" stroke="#FFFFFF" stroke-width="3" stroke-linejoin="round">
                <g transform="translate(18.000000, 126.000000) rotate(13.000000) translate(-18.000000, -126.000000) translate(-16.000000, 99.000000)">
                    <path d="M34.3955392,7.45972424 L34.0523813,6.67629242 C34.0523813,6.67629242 33.5273933,3.799625 32.6116921,2.56914207 C32.0098544,1.76041652 31.381388,0.693557356 29.4997645,0.55866698 C27.6181409,0.423776603 0.5,0.26710975 0.5,0.26710975 L0.5,43.0608139 L27.3673141,43.0608139 C27.3114844,43.3473689 27.2817714,43.5 27.2817714,43.5 L67.5,43.5 L67.5,0.558666978 C67.5,0.558666978 40.3818591,0.715333831 38.5002355,0.850224208 C36.618612,0.985114585 35.9901456,2.05197375 35.3883079,2.86069929 C35.3338673,2.9338544 34.9580532,4.70038132 34.3955392,7.45972424 Z" id="Path-101"></path>
                    <path d="M34.3955392,12.4597242 L34.0523813,11.6762924 C34.0523813,11.6762924 33.5273933,8.799625 32.6116921,7.56914207 C32.0098544,6.76041652 31.381388,5.69355736 29.4997645,5.55866698 C27.6181409,5.4237766 0.5,5.26710975 0.5,5.26710975 L0.5,48.0608139 L27.3673141,48.0608139 C27.3114844,48.3473689 27.2817714,48.5 27.2817714,48.5 L67.5,48.5 L67.5,5.55866698 C67.5,5.55866698 40.3818591,5.71533383 38.5002355,5.85022421 C36.618612,5.98511458 35.9901456,7.05197375 35.3883079,7.86069929 C35.3338673,7.9338544 34.9580532,9.70038132 34.3955392,12.4597242 Z" id="Path-101-Copy-2"></path>
                    <path d="M34.3955392,17.4597242 L34.0523813,16.6762924 C34.0523813,16.6762924 33.5273933,13.799625 32.6116921,12.5691421 C32.0098544,11.7604165 31.381388,10.6935574 29.4997645,10.558667 C27.6181409,10.4237766 0.5,10.2671097 0.5,10.2671097 L0.5,53.0608139 L27.3673141,53.0608139 C27.3114844,53.3473689 27.2817714,53.5 27.2817714,53.5 L67.5,53.5 L67.5,10.558667 C67.5,10.558667 40.3818591,10.7153338 38.5002355,10.8502242 C36.618612,10.9851146 35.9901456,12.0519737 35.3883079,12.8606993 C35.3338673,12.9338544 34.9580532,14.7003813 34.3955392,17.4597242 Z" id="Path-101-Copy-3"></path>
                    <path d="M34.5,10.5 L34.5,51.5 L34.5,10.5 Z" id="Line"></path>
                </g>
            </g>
            <path d="M24.925,47 L20.575,34.79 C20.4349993,34.4099981 20.2950007,34.1700005 20.155,34.07 C20.0149993,33.9699995 19.6150033,33.8500007 18.955,33.71 L19.135,32.54 L24.685,32.54 L24.805,33.71 L23.485,34.13 C23.3449993,34.1500001 23.275,34.2199994 23.275,34.34 C23.275,34.3600001 23.3149996,34.4899988 23.395,34.73 L26.155,43.37 C26.2350004,43.570001 26.275,43.8099986 26.275,44.09 L26.275,44.21 L26.515,44.21 C26.515,43.9899989 26.5949992,43.6900019 26.755,43.31 L29.485,36.5 L28.915,34.79 C28.7949994,34.4299982 28.6700007,34.1950006 28.54,34.085 C28.4099994,33.9749995 28.0950025,33.8500007 27.595,33.71 L27.775,32.54 L32.695,32.54 L32.815,33.71 L31.495,34.13 C31.3549993,34.1500001 31.285,34.2199994 31.285,34.34 C31.285,34.3600001 31.3249996,34.4899988 31.405,34.73 L34.135,43.37 C34.2150004,43.6100012 34.255,43.8499988 34.255,44.09 L34.255,44.21 L34.495,44.21 C34.495,44.0899994 34.5749992,43.7900024 34.735,43.31 L37.465,35.48 C37.5850006,35.1599984 37.645,34.9450006 37.645,34.835 C37.645,34.7249995 37.6400001,34.6450003 37.63,34.595 C37.62,34.5449998 37.5950002,34.4950003 37.555,34.445 C37.5149998,34.3949998 37.4800002,34.3550002 37.45,34.325 C37.4199999,34.2949999 37.3700004,34.2600002 37.3,34.22 C37.2299997,34.1799998 37.1700003,34.1450002 37.12,34.115 C37.0699998,34.0849999 36.9950005,34.0500002 36.895,34.01 C36.7949995,33.9699998 36.7100004,33.9400001 36.64,33.92 C36.5699997,33.8999999 36.4750006,33.8650003 36.355,33.815 C36.2349994,33.7649998 36.1350004,33.7300001 36.055,33.71 L36.235,32.54 L41.155,32.54 L41.275,33.71 C40.6349968,33.8700008 40.2450007,33.9749998 40.105,34.025 C39.9649993,34.0750003 39.8850001,34.1399996 39.865,34.22 L34.885,47 L32.935,47 L30.475,39.44 C30.3749995,39.1399985 30.325,38.8700012 30.325,38.63 L30.085,38.63 C30.085,38.8500011 30.0250006,39.1099985 29.905,39.41 L26.875,47 L24.925,47 Z M52.135,44.75 C50.9749942,46.2500075 49.5850081,47 47.965,47 C46.3449919,47 45.0150052,46.3550065 43.975,45.065 C42.9349948,43.7749936 42.415,42.0100112 42.415,39.77 C42.415,37.5299888 43.0049941,35.6900072 44.185,34.25 C45.3650059,32.8099928 47.0149894,32.09 49.135,32.09 C50.5950073,32.09 51.6749965,32.3499974 52.375,32.87 L52.585,32.78 C52.5049996,32.4599984 52.465,32.0200028 52.465,31.46 L52.465,26.42 C52.465,25.9999979 52.2600021,25.6850011 51.85,25.475 C51.4399979,25.264999 50.7050053,25.0900007 49.645,24.95 L49.825,23.99 C51.9650107,23.7099986 53.634994,23.57 54.835,23.57 L55.165,23.87 L55.165,43.79 C55.165,44.3100026 55.2899988,44.674999 55.54,44.885 C55.7900013,45.0950011 56.4249949,45.299999 57.445,45.5 L57.265,46.46 L53.665,46.85 C53.464999,46.85 53.2450012,46.650002 53.005,46.25 C52.7649988,45.849998 52.645,45.4900016 52.645,45.17 C52.645,44.8499984 52.6549999,44.6100008 52.675,44.45 L52.435,44.36 L52.135,44.75 Z M46.27,43.43 C46.9000032,44.3700047 47.6949952,44.84 48.655,44.84 C49.6150048,44.84 50.6149948,44.5000034 51.655,43.82 C52.1950027,43.4599982 52.465,43.0000028 52.465,42.44 L52.465,35.27 C51.6449959,34.2899951 50.3650087,33.8 48.625,33.8 C47.7649957,33.8 47.0850025,34.0799972 46.585,34.64 C45.7449958,35.5800047 45.325,37.0449901 45.325,39.035 C45.325,41.02501 45.6399969,42.4899953 46.27,43.43 L46.27,43.43 Z M59.935,46.73 L59.755,45.56 C60.8950057,45.3799991 61.664998,45.1700012 62.065,44.93 C62.465002,44.6899988 62.665,44.3300024 62.665,43.85 L62.665,34.64 C62.665,33.639995 62.6200004,33.040001 62.53,32.84 C62.4399996,32.639999 62.200002,32.54 61.81,32.54 C61.4199981,32.54 60.7450048,32.5899995 59.785,32.69 L59.545,31.55 C60.145003,31.2899987 61.044994,31.0250014 62.245,30.755 C63.445006,30.4849987 64.3749967,30.3400001 65.035,30.32 L65.365,30.62 L65.365,44.57 C65.365,44.8100012 65.4199995,44.9649997 65.53,45.035 C65.6400005,45.1050004 65.7849991,45.1599998 65.965,45.2 L68.275,45.56 L68.155,46.73 L59.935,46.73 Z M82.18,44.66 C80.9099936,46.2200078 79.1600112,47 76.93,47 C74.6999888,47 72.985006,46.2750073 71.785,44.825 C70.584994,43.3749928 69.985,41.355013 69.985,38.765 C69.985,36.174987 70.6199936,34.0950079 71.89,32.525 C73.1600064,30.9549922 74.9099889,30.17 77.14,30.17 C79.3700112,30.17 81.084994,30.8999927 82.285,32.36 C83.485006,33.8200073 84.085,35.8449871 84.085,38.435 C84.085,41.025013 83.4500063,43.0999922 82.18,44.66 L82.18,44.66 Z M77.335,45.41 C78.4950058,45.41 79.3549972,45.0600035 79.915,44.36 C80.2750018,43.8999977 80.5749988,43.1600051 80.815,42.14 C81.0550012,41.1199949 81.175,40.010006 81.175,38.81 C81.175,36.7499897 80.8000038,35.0600066 80.05,33.74 C79.2999962,32.4199934 78.1950073,31.76 76.735,31.76 C75.5749942,31.76 74.7150028,32.1099965 74.155,32.81 C73.7949982,33.2700023 73.4950012,34.0099949 73.255,35.03 C73.0149988,36.0500051 72.895,37.159994 72.895,38.36 C72.895,40.4200103 73.2699962,42.1099934 74.02,43.43 C74.7700038,44.7500066 75.8749927,45.41 77.335,45.41 L77.335,45.41 Z" fill="#FFFFFF" mask="url(#mask-2)"></path>
        </g>
    </g>
</svg>