<?xml version="1.0" encoding="UTF-8" standalone="no"?>
<svg width="118px" height="153px" viewBox="0 0 118 153" version="1.1" xmlns="http://www.w3.org/2000/svg" xmlns:xlink="http://www.w3.org/1999/xlink">
    <title>wd2</title>
    <defs>
        <rect id="path-1" x="2" y="2" width="100" height="135" rx="1"></rect>
    </defs>
    <g id="Page-1" stroke="none" stroke-width="1" fill="none" fill-rule="evenodd">
        <g id="wd2">
            <g id="Last-Page-+-Second-Page" transform="translate(11.000000, 10.000000)" stroke="#FFFFFF" stroke-width="4" stroke-linecap="round" stroke-linejoin="round">
                <path d="M6,141 L104.5,141 L104.5,8" id="Last-Page"></path>
                <path d="M0,134 L97.5,134 L97.5,0" id="Second-Page"></path>
            </g>
            <mask id="mask-2" fill="white">
                <use xlink:href="#path-1"></use>
            </mask>
            <use id="Page" stroke="#FFFFFF" stroke-width="4" stroke-linecap="round" stroke-linejoin="round" xlink:href="#path-1"></use>
            <g id="person" mask="url(#mask-2)" stroke="#FFFFFF" stroke-width="3">
                <g transform="translate(9.000000, 84.000000)">
                    <path d="M20.2871539,12.9107448 C24.0139582,15.197195 26.5,19.3104269 26.5,24.0059089 L26.5,27.3414114 C24.1696153,28.1650842 22.5,30.3875623 22.5,33 C22.5,35.6124377 24.1696153,37.8349158 26.5,38.6585886 L26.5,38.6585886 L26.5,53.9940911 C26.5,61.1770562 20.6812804,67 13.5,67 C6.32029825,67 0.5,61.1786248 0.5,53.9940911 L0.5,24.0059089 C0.5,19.3111723 2.98566372,15.1974151 6.71281154,12.9107051 L6.71281154,12.9107051" id="Rectangle-14"></path>
                    <circle id="Oval-3" cx="13.5" cy="9" r="9"></circle>
                    <path d="M36.7128115,12.9107051 L36.7128115,12.9107051 C32.9856637,15.1974151 30.5,19.3111723 30.5,24.0059089 L30.5,27.3414114 C32.8303847,28.1650842 34.5,30.3875623 34.5,33 C34.5,35.6124377 32.8303847,37.8349158 30.5,38.6585886 L30.5,38.6585886 L30.5,53.9940911 C30.5,61.1786248 36.3202983,67 43.5,67 C50.6812804,67 56.5,61.1770562 56.5,53.9940911 L56.5,38.6585886 C54.1696153,37.8349158 52.5,35.6124377 52.5,33 C52.5,30.3875623 54.1696153,28.1650842 56.5,27.3414114 L56.5,24.0059089 C56.5,19.3104269 54.0139582,15.197195 50.2871539,12.9107448" id="Rectangle-14-Copy"></path>
                    <circle id="Oval-3-Copy-2" cx="43.5" cy="9" r="9"></circle>
                    <path d="M80.2871539,12.9107448 C84.0139582,15.197195 86.5,19.3104269 86.5,24.0059089 L86.5,53.9940911 C86.5,61.1770562 80.6812804,67 73.5,67 C66.3202983,67 60.5,61.1786248 60.5,53.9940911 L60.5,38.6585886 C62.8303847,37.8349158 64.5,35.6124377 64.5,33 C64.5,30.3875623 62.8303847,28.1650842 60.5,27.3414114 L60.5,27.3414114 L60.5,24.0059089 C60.5,19.3111723 62.9856637,15.1974151 66.7128115,12.9107051 L66.7128115,12.9107051" id="Rectangle-14-Copy-2"></path>
                    <circle id="Oval-3-Copy-3" cx="73.5" cy="9" r="9"></circle>
                    <circle id="Oval-3-Copy-6" cx="28.5" cy="33" r="3"></circle>
                    <circle id="Oval-3-Copy-7" cx="58.5" cy="33" r="3"></circle>
                </g>
            </g>
            <path d="M32.71,46.27 L28.36,34.06 C28.2199993,33.6799981 28.0800007,33.4400005 27.94,33.34 C27.7999993,33.2399995 27.4000033,33.1200007 26.74,32.98 L26.92,31.81 L32.47,31.81 L32.59,32.98 L31.27,33.4 C31.1299993,33.4200001 31.06,33.4899994 31.06,33.61 C31.06,33.6300001 31.0999996,33.7599988 31.18,34 L33.94,42.64 C34.0200004,42.840001 34.06,43.0799986 34.06,43.36 L34.06,43.48 L34.3,43.48 C34.3,43.2599989 34.3799992,42.9600019 34.54,42.58 L37.27,35.77 L36.7,34.06 C36.5799994,33.6999982 36.4550007,33.4650005 36.325,33.355 C36.1949994,33.2449995 35.8800025,33.1200007 35.38,32.98 L35.56,31.81 L40.48,31.81 L40.6,32.98 L39.28,33.4 C39.1399993,33.4200001 39.07,33.4899994 39.07,33.61 C39.07,33.6300001 39.1099996,33.7599988 39.19,34 L41.92,42.64 C42.0000004,42.8800012 42.04,43.1199988 42.04,43.36 L42.04,43.48 L42.28,43.48 C42.28,43.3599994 42.3599992,43.0600024 42.52,42.58 L45.25,34.75 C45.3700006,34.4299984 45.43,34.2150005 45.43,34.105 C45.43,33.9949995 45.4250001,33.9150003 45.415,33.865 C45.405,33.8149997 45.3800002,33.7650002 45.34,33.715 C45.2999998,33.6649998 45.2650002,33.6250002 45.235,33.595 C45.2049999,33.5649999 45.1550004,33.5300002 45.085,33.49 C45.0149997,33.4499998 44.9550003,33.4150002 44.905,33.385 C44.8549998,33.3549998 44.7800005,33.3200002 44.68,33.28 C44.5799995,33.2399998 44.4950004,33.2100001 44.425,33.19 C44.3549997,33.1699999 44.2600006,33.1350003 44.14,33.085 C44.0199994,33.0349997 43.9200004,33.0000001 43.84,32.98 L44.02,31.81 L48.94,31.81 L49.06,32.98 C48.4199968,33.1400008 48.0300007,33.2449998 47.89,33.295 C47.7499993,33.3450003 47.6700001,33.4099996 47.65,33.49 L42.67,46.27 L40.72,46.27 L38.26,38.71 C38.1599995,38.4099985 38.11,38.1400012 38.11,37.9 L37.87,37.9 C37.87,38.1200011 37.8100006,38.3799985 37.69,38.68 L34.66,46.27 L32.71,46.27 Z M59.92,44.02 C58.7599942,45.5200075 57.3700081,46.27 55.75,46.27 C54.1299919,46.27 52.8000052,45.6250065 51.76,44.335 C50.7199948,43.0449936 50.2,41.2800112 50.2,39.04 C50.2,36.7999888 50.7899941,34.9600072 51.97,33.52 C53.1500059,32.0799928 54.7999894,31.36 56.92,31.36 C58.3800073,31.36 59.4599965,31.6199974 60.16,32.14 L60.37,32.05 C60.2899996,31.7299984 60.25,31.2900028 60.25,30.73 L60.25,25.69 C60.25,25.2699979 60.0450021,24.9550011 59.635,24.745 C59.224998,24.534999 58.4900053,24.3600007 57.43,24.22 L57.61,23.26 C59.7500107,22.9799986 61.419994,22.84 62.62,22.84 L62.95,23.14 L62.95,43.06 C62.95,43.5800026 63.0749988,43.9449989 63.325,44.155 C63.5750013,44.3650011 64.2099949,44.569999 65.23,44.77 L65.05,45.73 L61.45,46.12 C61.249999,46.12 61.0300012,45.920002 60.79,45.52 C60.5499988,45.119998 60.43,44.7600016 60.43,44.44 C60.43,44.1199984 60.4399999,43.8800008 60.46,43.72 L60.22,43.63 L59.92,44.02 Z M54.055,42.7 C54.6850032,43.6400047 55.4799952,44.11 56.44,44.11 C57.4000048,44.11 58.3999948,43.7700034 59.44,43.09 C59.9800027,42.7299982 60.25,42.2700028 60.25,41.71 L60.25,34.54 C59.4299959,33.5599951 58.1500087,33.07 56.41,33.07 C55.5499957,33.07 54.8700025,33.3499972 54.37,33.91 C53.5299958,34.8500047 53.11,36.3149901 53.11,38.305 C53.11,40.29501 53.4249969,41.7599953 54.055,42.7 L54.055,42.7 Z M67.09,46 L67.09,44.41 C70.6100176,41.5499857 72.6899968,39.7400038 73.33,38.98 C74.3900053,37.7399938 74.9999992,36.8300029 75.16,36.25 C75.3200008,35.6699971 75.4,35.1300025 75.4,34.63 C75.4,33.5899948 75.100003,32.7300034 74.5,32.05 C73.899997,31.3699966 73.0900051,31.03 72.07,31.03 C71.0499949,31.03 70.3500019,31.1799985 69.97,31.48 C69.7299988,31.680001 69.5000011,32.7599902 69.28,34.72 L67.66,34.54 C67.4999992,33.8199964 67.42,33.0700039 67.42,32.29 C67.42,31.5099961 67.4299999,31.020001 67.45,30.82 C68.6100058,29.8999954 70.2049899,29.44 72.235,29.44 C74.2650102,29.44 75.784995,29.8699957 76.795,30.73 C77.8050051,31.5900043 78.31,32.7549927 78.31,34.225 C78.31,35.6950073 77.6900062,37.1699926 76.45,38.65 C75.2099938,40.1300074 73.2400135,41.7999907 70.54,43.66 L70.6,43.87 L72.4,43.81 C74.9800129,43.7299996 76.4349984,43.6550004 76.765,43.585 C77.0950017,43.5149997 77.4699979,42.7400074 77.89,41.26 L79.27,41.38 C79.2900001,41.5600009 79.3,41.8599979 79.3,42.28 C79.3,43.6600069 79.1400016,44.8999945 78.82,46 L67.09,46 Z" fill="#FFFFFF" mask="url(#mask-2)"></path>
        </g>
    </g>
</svg>