<?xml version="1.0" encoding="UTF-8" standalone="no"?>
<svg width="118px" height="153px" viewBox="0 0 118 153" version="1.1" xmlns="http://www.w3.org/2000/svg" xmlns:xlink="http://www.w3.org/1999/xlink">
    <title>wd3</title>
    <defs>
        <rect id="path-1" x="2" y="2" width="100" height="135" rx="1"></rect>
    </defs>
    <g id="Page-1" stroke="none" stroke-width="1" fill="none" fill-rule="evenodd">
        <g id="wd3">
            <g id="Last-Page-+-Second-Page" transform="translate(11.000000, 10.000000)" stroke="#FFFFFF" stroke-width="4" stroke-linecap="round" stroke-linejoin="round">
                <path d="M6,141 L104.5,141 L104.5,8" id="Last-Page"></path>
                <path d="M0,134 L97.5,134 L97.5,0" id="Second-Page"></path>
            </g>
            <mask id="mask-2" fill="white">
                <use xlink:href="#path-1"></use>
            </mask>
            <use id="Page" stroke="#FFFFFF" stroke-width="4" stroke-linecap="round" stroke-linejoin="round" xlink:href="#path-1"></use>
            <g id="roll" mask="url(#mask-2)" stroke-linecap="round" stroke="#FFFFFF" stroke-width="3" stroke-linejoin="round">
                <g transform="translate(18.000000, 78.000000)">
                    <path d="M8.84892096,15.7795027 C8.84892096,10.254468 13.3283494,5.77554234 18.8487526,5.77554234 C18.8487526,5.77554234 37.8518669,5.77554234 42.8508849,5.77554234 C47.8499029,5.77554234 53.6902234,5.77554234 53.6902234,5.77554234 C59.2117323,5.77554234 62.4823226,10.0858312 60.9920561,15.4144099 L60.9843007,15.44214 C60.9843007,15.44214 59.9850938,20.4041127 58.1136953,20.3880571 C57.4790995,20.3826126 54.2405988,20.3880571 54.2405988,20.3880571 C54.2405988,20.3880571 54.2661738,15.4018583 54.2405988,15.44214 C53.5669808,16.5031168 54.2405988,20.3880571 54.2405988,20.3880571 L53.106204,64.4539602 C52.9641105,69.9736236 48.3673954,74.4481949 42.8508849,74.4481949 L18.846957,74.4481949 C13.3251942,74.4481949 8.84892096,69.9688805 8.84892096,64.4442345 L8.84892096,15.7795027 Z" id="roll" transform="translate(35.074800, 40.111869) rotate(-15.000000) translate(-35.074800, -40.111869) "></path>
                    <path d="M10.5,25.5 L40.5,17.5" id="Line"></path>
                    <path d="M13.5,33.5 L42.5,25.5" id="Line-Copy"></path>
                    <path d="M17.5,49.5 L46.5,41.5" id="Line-Copy-2"></path>
                    <path d="M19.5,55.5 L42.5,49.5" id="Line-Copy-5"></path>
                    <path d="M15.5,41.5 L30.5,37.5" id="Line-Copy-3"></path>
                </g>
            </g>
            <path d="M31.21,46.27 L26.86,34.06 C26.7199993,33.6799981 26.5800007,33.4400005 26.44,33.34 C26.2999993,33.2399995 25.9000033,33.1200007 25.24,32.98 L25.42,31.81 L30.97,31.81 L31.09,32.98 L29.77,33.4 C29.6299993,33.4200001 29.56,33.4899994 29.56,33.61 C29.56,33.6300001 29.5999996,33.7599988 29.68,34 L32.44,42.64 C32.5200004,42.840001 32.56,43.0799986 32.56,43.36 L32.56,43.48 L32.8,43.48 C32.8,43.2599989 32.8799992,42.9600019 33.04,42.58 L35.77,35.77 L35.2,34.06 C35.0799994,33.6999982 34.9550007,33.4650005 34.825,33.355 C34.6949994,33.2449995 34.3800025,33.1200007 33.88,32.98 L34.06,31.81 L38.98,31.81 L39.1,32.98 L37.78,33.4 C37.6399993,33.4200001 37.57,33.4899994 37.57,33.61 C37.57,33.6300001 37.6099996,33.7599988 37.69,34 L40.42,42.64 C40.5000004,42.8800012 40.54,43.1199988 40.54,43.36 L40.54,43.48 L40.78,43.48 C40.78,43.3599994 40.8599992,43.0600024 41.02,42.58 L43.75,34.75 C43.8700006,34.4299984 43.93,34.2150005 43.93,34.105 C43.93,33.9949995 43.9250001,33.9150003 43.915,33.865 C43.905,33.8149997 43.8800002,33.7650002 43.84,33.715 C43.7999998,33.6649998 43.7650002,33.6250002 43.735,33.595 C43.7049999,33.5649999 43.6550004,33.5300002 43.585,33.49 C43.5149997,33.4499998 43.4550003,33.4150002 43.405,33.385 C43.3549998,33.3549998 43.2800005,33.3200002 43.18,33.28 C43.0799995,33.2399998 42.9950004,33.2100001 42.925,33.19 C42.8549997,33.1699999 42.7600006,33.1350003 42.64,33.085 C42.5199994,33.0349997 42.4200004,33.0000001 42.34,32.98 L42.52,31.81 L47.44,31.81 L47.56,32.98 C46.9199968,33.1400008 46.5300007,33.2449998 46.39,33.295 C46.2499993,33.3450003 46.1700001,33.4099996 46.15,33.49 L41.17,46.27 L39.22,46.27 L36.76,38.71 C36.6599995,38.4099985 36.61,38.1400012 36.61,37.9 L36.37,37.9 C36.37,38.1200011 36.3100006,38.3799985 36.19,38.68 L33.16,46.27 L31.21,46.27 Z M58.42,44.02 C57.2599942,45.5200075 55.8700081,46.27 54.25,46.27 C52.6299919,46.27 51.3000052,45.6250065 50.26,44.335 C49.2199948,43.0449936 48.7,41.2800112 48.7,39.04 C48.7,36.7999888 49.2899941,34.9600072 50.47,33.52 C51.6500059,32.0799928 53.2999894,31.36 55.42,31.36 C56.8800073,31.36 57.9599965,31.6199974 58.66,32.14 L58.87,32.05 C58.7899996,31.7299984 58.75,31.2900028 58.75,30.73 L58.75,25.69 C58.75,25.2699979 58.5450021,24.9550011 58.135,24.745 C57.724998,24.534999 56.9900053,24.3600007 55.93,24.22 L56.11,23.26 C58.2500107,22.9799986 59.919994,22.84 61.12,22.84 L61.45,23.14 L61.45,43.06 C61.45,43.5800026 61.5749988,43.9449989 61.825,44.155 C62.0750013,44.3650011 62.7099949,44.569999 63.73,44.77 L63.55,45.73 L59.95,46.12 C59.749999,46.12 59.5300012,45.920002 59.29,45.52 C59.0499988,45.119998 58.93,44.7600016 58.93,44.44 C58.93,44.1199984 58.9399999,43.8800008 58.96,43.72 L58.72,43.63 L58.42,44.02 Z M52.555,42.7 C53.1850032,43.6400047 53.9799952,44.11 54.94,44.11 C55.9000048,44.11 56.8999948,43.7700034 57.94,43.09 C58.4800027,42.7299982 58.75,42.2700028 58.75,41.71 L58.75,34.54 C57.9299959,33.5599951 56.6500087,33.07 54.91,33.07 C54.0499957,33.07 53.3700025,33.3499972 52.87,33.91 C52.0299958,34.8500047 51.61,36.3149901 51.61,38.305 C51.61,40.29501 51.9249969,41.7599953 52.555,42.7 L52.555,42.7 Z M66.34,50.14 L66.19,48.46 C68.7500128,48.1199983 70.7849925,47.4950046 72.295,46.585 C73.8050076,45.6749955 74.56,44.5100071 74.56,43.09 C74.56,42.1499953 74.2100035,41.4000028 73.51,40.84 C72.8099965,40.2799972 71.7500071,40 70.33,40 C69.7899973,40 69.2700025,40.0399996 68.77,40.12 L68.86,38.68 C70.6000087,38.3999986 71.869996,37.8450042 72.67,37.015 C73.470004,36.1849959 73.87,35.2800049 73.87,34.3 C73.87,33.3199951 73.5850029,32.530003 73.015,31.93 C72.4449972,31.329997 71.6700049,31.03 70.69,31.03 C69.3899935,31.03 68.6100013,31.2599977 68.35,31.72 C68.1099988,32.1000019 67.9400005,33.0999919 67.84,34.72 L66.25,34.54 C66.0699991,33.6399955 65.98,32.8450035 65.98,32.155 C65.98,31.4649966 65.9899999,31.020001 66.01,30.82 C67.410007,29.8999954 69.0199909,29.44 70.84,29.44 C72.6600091,29.44 74.0949948,29.8099963 75.145,30.55 C76.1950053,31.2900037 76.72,32.2299943 76.72,33.37 C76.72,34.5100057 76.4400028,35.4699961 75.88,36.25 C75.3199972,37.0300039 74.6100043,37.619998 73.75,38.02 L73.78,38.26 C74.9200057,38.4800011 75.8599963,38.9399965 76.6,39.64 C77.3400037,40.3400035 77.71,41.289994 77.71,42.49 C77.71,44.49001 76.6600105,46.1799931 74.56,47.56 C72.4599895,48.9400069 69.7200169,49.7999983 66.34,50.14 L66.34,50.14 Z" fill="#FFFFFF" mask="url(#mask-2)"></path>
        </g>
    </g>
</svg>