<?xml version="1.0" encoding="UTF-8" standalone="no"?>
<svg width="118px" height="153px" viewBox="0 0 118 153" version="1.1" xmlns="http://www.w3.org/2000/svg" xmlns:xlink="http://www.w3.org/1999/xlink">
    <title>wd4</title>
    <defs>
        <rect id="path-1" x="2" y="2" width="100" height="135" rx="1"></rect>
    </defs>
    <g id="Page-1" stroke="none" stroke-width="1" fill="none" fill-rule="evenodd">
        <g id="wd4">
            <g id="Last-Page-+-Second-Page" transform="translate(11.000000, 10.000000)" stroke="#FFFFFF" stroke-width="4" stroke-linecap="round" stroke-linejoin="round">
                <path d="M6,141 L104.5,141 L104.5,8" id="Last-Page"></path>
                <path d="M0,134 L97.5,134 L97.5,0" id="Second-Page"></path>
            </g>
            <mask id="mask-2" fill="white">
                <use xlink:href="#path-1"></use>
            </mask>
            <use id="Page" stroke="#FFFFFF" stroke-width="4" stroke-linecap="round" stroke-linejoin="round" xlink:href="#path-1"></use>
            <g id="money" mask="url(#mask-2)" stroke="#FFFFFF" stroke-width="3">
                <g transform="translate(11.000000, 85.000000)">
                    <path d="M1,31.6379235 L1,36 C1,40.1421356 9.28273213,43.5 19.5,43.5 L19.5,43.5 C29.7172679,43.5 38,40.1421356 38,36 L38,31.6379235" id="Oval-15-Copy-2" stroke-linecap="round" stroke-linejoin="round"></path>
                    <path d="M2,26.6379235 L2,31 C2,35.1421356 10.2827321,38.5 20.5,38.5 L20.5,38.5 C30.7172679,38.5 39,35.1421356 39,31 L39,26.6379235" id="Oval-15-Copy-4" stroke-linecap="round" stroke-linejoin="round"></path>
                    <path d="M1,20.6379235 L1,25 C1,29.1421356 9.28273213,32.5 19.5,32.5 L19.5,32.5 C29.7172679,32.5 38,29.1421356 38,25 L38,20.6379235" id="Oval-15-Copy-5" stroke-linecap="round" stroke-linejoin="round"></path>
                    <path d="M0,14.6379235 L0,19 C0,23.1421356 8.28273213,26.5 18.5,26.5 L18.5,26.5 C28.7172679,26.5 37,23.1421356 37,19 L37,14.6379235" id="Oval-15-Copy-6" stroke-linecap="round" stroke-linejoin="round"></path>
                    <path d="M1,8.63792348 L1,13 C1,17.1421356 9.28273213,20.5 19.5,20.5 L19.5,20.5 C29.7172679,20.5 38,17.1421356 38,13 L38,8.63792348" id="Oval-15-Copy-7" stroke-linecap="round" stroke-linejoin="round"></path>
                    <path d="M19.5,15.5 C29.7172679,15.5 38,12.1421356 38,8 C38,3.85786438 29.7172679,0.5 19.5,0.5 C9.28273213,0.5 1,3.85786438 1,8 C1,12.1421356 9.28273213,15.5 19.5,15.5 Z" id="Oval-15-Copy-3"></path>
                </g>
            </g>
            <g id="chart" mask="url(#mask-2)" stroke-linecap="round" stroke="#FFFFFF" stroke-width="3" stroke-linejoin="round">
                <g transform="translate(56.000000, 86.000000)">
                    <path d="M35,40 L0,40 L0,0" id="Rectangle-18"></path>
                    <path d="M0.666467159,23.3196871 L9.35482065,15.6243748 L21.5422819,25.128657 L27.0948348,18.9539389 L34.4480338,20.3765158" id="Path-50"></path>
                </g>
            </g>
            <path d="M30.21,46.27 L25.86,34.06 C25.7199993,33.6799981 25.5800007,33.4400005 25.44,33.34 C25.2999993,33.2399995 24.9000033,33.1200007 24.24,32.98 L24.42,31.81 L29.97,31.81 L30.09,32.98 L28.77,33.4 C28.6299993,33.4200001 28.56,33.4899994 28.56,33.61 C28.56,33.6300001 28.5999996,33.7599988 28.68,34 L31.44,42.64 C31.5200004,42.840001 31.56,43.0799986 31.56,43.36 L31.56,43.48 L31.8,43.48 C31.8,43.2599989 31.8799992,42.9600019 32.04,42.58 L34.77,35.77 L34.2,34.06 C34.0799994,33.6999982 33.9550007,33.4650006 33.825,33.355 C33.6949994,33.2449995 33.3800025,33.1200007 32.88,32.98 L33.06,31.81 L37.98,31.81 L38.1,32.98 L36.78,33.4 C36.6399993,33.4200001 36.57,33.4899994 36.57,33.61 C36.57,33.6300001 36.6099996,33.7599988 36.69,34 L39.42,42.64 C39.5000004,42.8800012 39.54,43.1199988 39.54,43.36 L39.54,43.48 L39.78,43.48 C39.78,43.3599994 39.8599992,43.0600024 40.02,42.58 L42.75,34.75 C42.8700006,34.4299984 42.93,34.2150006 42.93,34.105 C42.93,33.9949995 42.9250001,33.9150003 42.915,33.865 C42.905,33.8149998 42.8800002,33.7650003 42.84,33.715 C42.7999998,33.6649998 42.7650002,33.6250002 42.735,33.595 C42.7049999,33.5649999 42.6550004,33.5300002 42.585,33.49 C42.5149997,33.4499998 42.4550003,33.4150002 42.405,33.385 C42.3549998,33.3549999 42.2800005,33.3200002 42.18,33.28 C42.0799995,33.2399998 41.9950004,33.2100001 41.925,33.19 C41.8549997,33.1699999 41.7600006,33.1350003 41.64,33.085 C41.5199994,33.0349998 41.4200004,33.0000001 41.34,32.98 L41.52,31.81 L46.44,31.81 L46.56,32.98 C45.9199968,33.1400008 45.5300007,33.2449998 45.39,33.295 C45.2499993,33.3450003 45.1700001,33.4099996 45.15,33.49 L40.17,46.27 L38.22,46.27 L35.76,38.71 C35.6599995,38.4099985 35.61,38.1400012 35.61,37.9 L35.37,37.9 C35.37,38.1200011 35.3100006,38.3799985 35.19,38.68 L32.16,46.27 L30.21,46.27 Z M57.42,44.02 C56.2599942,45.5200075 54.8700081,46.27 53.25,46.27 C51.6299919,46.27 50.3000052,45.6250065 49.26,44.335 C48.2199948,43.0449936 47.7,41.2800112 47.7,39.04 C47.7,36.7999888 48.2899941,34.9600072 49.47,33.52 C50.6500059,32.0799928 52.2999894,31.36 54.42,31.36 C55.8800073,31.36 56.9599965,31.6199974 57.66,32.14 L57.87,32.05 C57.7899996,31.7299984 57.75,31.2900028 57.75,30.73 L57.75,25.69 C57.75,25.2699979 57.5450021,24.9550011 57.135,24.745 C56.724998,24.534999 55.9900053,24.3600007 54.93,24.22 L55.11,23.26 C57.2500107,22.9799986 58.919994,22.84 60.12,22.84 L60.45,23.14 L60.45,43.06 C60.45,43.5800026 60.5749988,43.944999 60.825,44.155 C61.0750013,44.3650011 61.7099949,44.569999 62.73,44.77 L62.55,45.73 L58.95,46.12 C58.749999,46.12 58.5300012,45.920002 58.29,45.52 C58.0499988,45.119998 57.93,44.7600016 57.93,44.44 C57.93,44.1199984 57.9399999,43.8800008 57.96,43.72 L57.72,43.63 L57.42,44.02 Z M51.555,42.7 C52.1850032,43.6400047 52.9799952,44.11 53.94,44.11 C54.9000048,44.11 55.8999948,43.7700034 56.94,43.09 C57.4800027,42.7299982 57.75,42.2700028 57.75,41.71 L57.75,34.54 C56.9299959,33.5599951 55.6500087,33.07 53.91,33.07 C53.0499957,33.07 52.3700025,33.3499972 51.87,33.91 C51.0299958,34.8500047 50.61,36.3149901 50.61,38.305 C50.61,40.29501 50.9249969,41.7599953 51.555,42.7 L51.555,42.7 Z M64.62,44.65 L63.93,42.82 L73.44,29.98 C74.5600056,29.7199987 75.419997,29.59 76.02,29.59 L76.35,29.89 L76.35,42.91 L79.41,42.97 L79.14,44.68 L76.35,44.68 L76.35,49.66 C75.7099968,49.7800006 74.9200047,49.84 73.98,49.84 L73.65,49.54 L73.65,44.68 L64.65,44.68 L64.62,44.65 Z M66.06,42.55 L66.18,42.76 L73.65,42.88 L73.65,33.49 C73.65,33.0699979 73.6699998,32.7700009 73.71,32.59 L73.53,32.5 L66.6,41.89 C66.4399992,42.1300012 66.260001,42.349999 66.06,42.55 L66.06,42.55 Z" fill="#FFFFFF" mask="url(#mask-2)"></path>
        </g>
    </g>
</svg>