<?xml version="1.0" encoding="UTF-8" standalone="no"?>
<svg width="118px" height="153px" viewBox="0 0 118 153" version="1.1" xmlns="http://www.w3.org/2000/svg" xmlns:xlink="http://www.w3.org/1999/xlink">
    <title>wd5</title>
    <defs>
        <rect id="path-1" x="2" y="2" width="100" height="135" rx="1"></rect>
    </defs>
    <g id="Page-1" stroke="none" stroke-width="1" fill="none" fill-rule="evenodd">
        <g id="wd5">
            <g id="Last-Page-+-Second-Page" transform="translate(11.000000, 10.000000)" stroke="#FFFFFF" stroke-width="4" stroke-linecap="round" stroke-linejoin="round">
                <path d="M6,141 L104.5,141 L104.5,8" id="Last-Page"></path>
                <path d="M0,134 L97.5,134 L97.5,0" id="Second-Page"></path>
            </g>
            <mask id="mask-2" fill="white">
                <use xlink:href="#path-1"></use>
            </mask>
            <use id="Page" stroke="#FFFFFF" stroke-width="4" stroke-linecap="round" stroke-linejoin="round" xlink:href="#path-1"></use>
            <g id="big-ear" mask="url(#mask-2)" stroke-linecap="round" stroke="#FFFFFF" stroke-linejoin="round">
                <g transform="translate(84.245161, 115.662735) rotate(5.000000) translate(-84.245161, -115.662735) translate(69.245161, 77.662735)">
                    <path d="M15,75.5 L15,15" id="Line" stroke-width="4"></path>
                    <path d="M10.8482517,21.6194627 C13.3380054,24.8422192 14.8677303,33.4318251 14.8677303,33.4318251 C14.8677303,33.4318251 6.92656096,30.2934448 4.43547601,27.068965 C2.01474077,23.9355465 0.132269714,14.3581301 0.132269714,14.3581301 C0.132269714,14.3581301 8.42618519,18.4843209 10.8482517,21.6194627 Z" id="Path-52" stroke-width="2"></path>
                    <path d="M12.8482517,12.6194627 C15.3380054,15.8422192 16.8677303,24.4318251 16.8677303,24.4318251 C16.8677303,24.4318251 8.92656096,21.2934448 6.43547601,18.068965 C4.01474077,14.9355465 2.13226971,5.35813009 2.13226971,5.35813009 C2.13226971,5.35813009 10.4261852,9.48432085 12.8482517,12.6194627 Z" id="Path-52-Copy-11" stroke-width="2" transform="translate(9.500000, 14.894978) rotate(5.000000) translate(-9.500000, -14.894978) "></path>
                    <path d="M18.554771,10.7399864 C18.832378,11.6293978 14.9591966,14.8234901 14.9591966,15.9630537 C14.6207579,14.3509433 12.7377504,11.6964577 11.9988247,10.7399864 C9.57808945,7.60656785 12.4717703,1 14.2707125,1 C15.2226054,1 18.3976605,10.2366279 18.554771,10.7399864 Z" id="Path-52-Copy-12" stroke-width="2"></path>
                    <path d="M25.8482517,22.6194627 C28.3380054,25.8422192 29.8677303,34.4318251 29.8677303,34.4318251 C29.8677303,34.4318251 21.926561,31.2934448 19.435476,28.068965 C17.0147408,24.9355465 15.1322697,15.3581301 15.1322697,15.3581301 C15.1322697,15.3581301 23.4261852,19.4843209 25.8482517,22.6194627 Z" id="Path-52-Copy" stroke-width="2" transform="translate(22.500000, 24.894978) scale(-1, 1) translate(-22.500000, -24.894978) "></path>
                    <path d="M23.8482517,12.6194627 C26.3380054,15.8422192 27.8677303,24.4318251 27.8677303,24.4318251 C27.8677303,24.4318251 19.926561,21.2934448 17.435476,18.068965 C15.0147408,14.9355465 13.1322697,5.35813009 13.1322697,5.35813009 C13.1322697,5.35813009 21.4261852,9.48432085 23.8482517,12.6194627 Z" id="Path-52-Copy-10" stroke-width="2" transform="translate(20.500000, 14.894978) scale(-1, 1) rotate(10.000000) translate(-20.500000, -14.894978) "></path>
                    <path d="M10.8482517,31.6194627 C13.3380054,34.8422192 14.8677303,43.4318251 14.8677303,43.4318251 C14.8677303,43.4318251 6.92656096,40.2934448 4.43547601,37.068965 C2.01474077,33.9355465 0.132269714,24.3581301 0.132269714,24.3581301 C0.132269714,24.3581301 8.42618519,28.4843209 10.8482517,31.6194627 Z" id="Path-52-Copy-3" stroke-width="2"></path>
                    <path d="M25.8482517,32.6194627 C28.3380054,35.8422192 29.8677303,44.4318251 29.8677303,44.4318251 C29.8677303,44.4318251 21.926561,41.2934448 19.435476,38.068965 C17.0147408,34.9355465 15.1322697,25.3581301 15.1322697,25.3581301 C15.1322697,25.3581301 23.4261852,29.4843209 25.8482517,32.6194627 Z" id="Path-52-Copy-2" stroke-width="2" transform="translate(22.500000, 34.894978) scale(-1, 1) translate(-22.500000, -34.894978) "></path>
                    <path d="M10.8482517,41.6194627 C13.3380054,44.8422192 14.8677303,53.4318251 14.8677303,53.4318251 C14.8677303,53.4318251 6.92656096,50.2934448 4.43547601,47.068965 C2.01474077,43.9355465 0.132269714,34.3581301 0.132269714,34.3581301 C0.132269714,34.3581301 8.42618519,38.4843209 10.8482517,41.6194627 Z" id="Path-52-Copy-5" stroke-width="2"></path>
                    <path d="M25.8482517,42.6194627 C28.3380054,45.8422192 29.8677303,54.4318251 29.8677303,54.4318251 C29.8677303,54.4318251 21.926561,51.2934448 19.435476,48.068965 C17.0147408,44.9355465 15.1322697,35.3581301 15.1322697,35.3581301 C15.1322697,35.3581301 23.4261852,39.4843209 25.8482517,42.6194627 Z" id="Path-52-Copy-4" stroke-width="2" transform="translate(22.500000, 44.894978) scale(-1, 1) translate(-22.500000, -44.894978) "></path>
                    <path d="M10.8482517,51.6194627 C13.3380054,54.8422192 14.8677303,63.4318251 14.8677303,63.4318251 C14.8677303,63.4318251 6.92656096,60.2934448 4.43547601,57.068965 C2.01474077,53.9355465 0.132269714,44.3581301 0.132269714,44.3581301 C0.132269714,44.3581301 8.42618519,48.4843209 10.8482517,51.6194627 Z" id="Path-52-Copy-7" stroke-width="2"></path>
                    <path d="M25.8482517,52.6194627 C28.3380054,55.8422192 29.8677303,64.4318251 29.8677303,64.4318251 C29.8677303,64.4318251 21.926561,61.2934448 19.435476,58.068965 C17.0147408,54.9355465 15.1322697,45.3581301 15.1322697,45.3581301 C15.1322697,45.3581301 23.4261852,49.4843209 25.8482517,52.6194627 Z" id="Path-52-Copy-6" stroke-width="2" transform="translate(22.500000, 54.894978) scale(-1, 1) translate(-22.500000, -54.894978) "></path>
                    <path d="M25.8482517,60.6194627 C28.3380054,63.8422192 29.8677303,72.4318251 29.8677303,72.4318251 C29.8677303,72.4318251 21.926561,69.2934448 19.435476,66.068965 C17.0147408,62.9355465 15.1322697,53.3581301 15.1322697,53.3581301 C15.1322697,53.3581301 23.4261852,57.4843209 25.8482517,60.6194627 Z" id="Path-52-Copy-8" stroke-width="2" transform="translate(22.500000, 62.894978) scale(-1, 1) translate(-22.500000, -62.894978) "></path>
                </g>
            </g>
            <g id="ear" mask="url(#mask-2)" stroke-linecap="round" stroke="#FFFFFF" stroke-linejoin="round">
                <g transform="translate(56.500000, 124.500000) scale(-1, 1) rotate(12.000000) translate(-56.500000, -124.500000) translate(44.000000, 94.000000)">
                    <path d="M12.9032258,60.5933333 L12.9032258,11.3866667" id="Line" stroke-width="4"></path>
                    <path d="M9.55504172,16.7704963 C11.5629076,19.3916716 12.7965567,26.3778845 12.7965567,26.3778845 C12.7965567,26.3778845 6.39238787,23.8253351 4.3834484,21.2027582 C2.43124256,18.6542445 0.913120737,10.8646125 0.913120737,10.8646125 C0.913120737,10.8646125 7.60176225,14.220581 9.55504172,16.7704963 Z" id="Path-52" stroke-width="2"></path>
                    <path d="M11.6938372,9.79083759 C13.701703,12.4120129 14.4094599,19.0578845 14.4094599,19.0578845 C14.4094599,19.0578845 7.43713244,16.1376403 5.42819297,13.5150634 C3.47598713,10.9665496 2.52602396,3.54461247 2.52602396,3.54461247 C2.52602396,3.54461247 9.74055769,7.24092225 11.6938372,9.79083759 L11.6938372,9.79083759 Z" id="Path-52-Copy-11" stroke-width="2"></path>
                    <path d="M15.7699766,7.92185562 C15.9938532,8.64524352 12.8703198,11.2431053 12.8703198,12.1699503 C12.5973854,10.8587672 11.078831,8.69978557 10.4829231,7.92185562 C8.5307173,5.37334185 10.8643309,3.69105961e-16 12.3150907,0 C13.0827463,-1.95308842e-16 15.6432746,7.5124574 15.7699766,7.92185562 Z" id="Path-52-Copy-12" stroke-width="2"></path>
                    <path d="M21.6518159,17.5838296 C23.6596818,20.205005 24.8933309,27.1912178 24.8933309,27.1912178 C24.8933309,27.1912178 18.4891621,24.6386684 16.4802226,22.0160916 C14.5280167,19.4675778 13.0098949,11.6779458 13.0098949,11.6779458 C13.0098949,11.6779458 19.6985364,15.0339143 21.6518159,17.5838296 Z" id="Path-52-Copy" stroke-width="2" transform="translate(18.951613, 19.434582) scale(-1, 1) translate(-18.951613, -19.434582) "></path>
                    <path d="M13.420684,10.0949961 C11.4128181,12.7161714 11.3969917,19.0578845 11.3969917,19.0578845 C11.3969917,19.0578845 19.1168607,15.8090363 21.1258002,13.1864594 C23.0780061,10.6379456 23.2804277,3.54461247 23.2804277,3.54461247 C23.2804277,3.54461247 15.3739634,7.54508074 13.420684,10.0949961 L13.420684,10.0949961 Z" id="Path-52-Copy-10" stroke-width="2"></path>
                    <path d="M9.55504172,24.9038296 C11.5629076,27.525005 12.7965567,34.5112178 12.7965567,34.5112178 C12.7965567,34.5112178 6.39238787,31.9586684 4.3834484,29.3360916 C2.43124256,26.7875778 0.913120737,18.9979458 0.913120737,18.9979458 C0.913120737,18.9979458 7.60176225,22.3539143 9.55504172,24.9038296 Z" id="Path-52-Copy-3" stroke-width="2"></path>
                    <path d="M21.6518159,25.717163 C23.6596818,28.3383383 24.8933309,35.3245511 24.8933309,35.3245511 C24.8933309,35.3245511 18.4891621,32.7720018 16.4802226,30.1494249 C14.5280167,27.6009111 13.0098949,19.8112791 13.0098949,19.8112791 C13.0098949,19.8112791 19.6985364,23.1672476 21.6518159,25.717163 Z" id="Path-52-Copy-2" stroke-width="2" transform="translate(18.951613, 27.567915) scale(-1, 1) translate(-18.951613, -27.567915) "></path>
                    <path d="M9.55504172,33.037163 C11.5629076,35.6583383 12.7965567,42.6445511 12.7965567,42.6445511 C12.7965567,42.6445511 6.39238787,40.0920018 4.3834484,37.4694249 C2.43124256,34.9209111 0.913120737,27.1312791 0.913120737,27.1312791 C0.913120737,27.1312791 7.60176225,30.4872476 9.55504172,33.037163 Z" id="Path-52-Copy-5" stroke-width="2"></path>
                    <path d="M21.6518159,33.8504963 C23.6596818,36.4716716 24.8933309,43.4578845 24.8933309,43.4578845 C24.8933309,43.4578845 18.4891621,40.9053351 16.4802226,38.2827582 C14.5280167,35.7342445 13.0098949,27.9446125 13.0098949,27.9446125 C13.0098949,27.9446125 19.6985364,31.300581 21.6518159,33.8504963 Z" id="Path-52-Copy-4" stroke-width="2" transform="translate(18.951613, 35.701248) scale(-1, 1) translate(-18.951613, -35.701248) "></path>
                    <path d="M9.55504172,41.1704963 C11.5629076,43.7916716 12.7965567,50.7778845 12.7965567,50.7778845 C12.7965567,50.7778845 6.39238787,48.2253351 4.3834484,45.6027582 C2.43124256,43.0542445 0.913120737,35.2646125 0.913120737,35.2646125 C0.913120737,35.2646125 7.60176225,38.620581 9.55504172,41.1704963 Z" id="Path-52-Copy-7" stroke-width="2"></path>
                    <path d="M21.6518159,41.9838296 C23.6596818,44.605005 24.8933309,51.5912178 24.8933309,51.5912178 C24.8933309,51.5912178 18.4891621,49.0386684 16.4802226,46.4160916 C14.5280167,43.8675778 13.0098949,36.0779458 13.0098949,36.0779458 C13.0098949,36.0779458 19.6985364,39.4339143 21.6518159,41.9838296 Z" id="Path-52-Copy-6" stroke-width="2" transform="translate(18.951613, 43.834582) scale(-1, 1) translate(-18.951613, -43.834582) "></path>
                    <path d="M8.7485901,47.677163 C10.756456,50.2983383 11.9901051,57.2845511 11.9901051,57.2845511 C11.9901051,57.2845511 5.58593626,54.7320018 3.57699678,52.1094249 C1.62479094,49.5609111 0.106669124,41.7712791 0.106669124,41.7712791 C0.106669124,41.7712791 6.79531064,45.1272476 8.7485901,47.677163 Z" id="Path-52-Copy-9" stroke-width="2"></path>
                    <path d="M21.6518159,48.4904963 C23.6596818,51.1116716 24.8933309,58.0978845 24.8933309,58.0978845 C24.8933309,58.0978845 18.4891621,55.5453351 16.4802226,52.9227582 C14.5280167,50.3742445 13.0098949,42.5846125 13.0098949,42.5846125 C13.0098949,42.5846125 19.6985364,45.940581 21.6518159,48.4904963 Z" id="Path-52-Copy-8" stroke-width="2" transform="translate(18.951613, 50.341248) scale(-1, 1) translate(-18.951613, -50.341248) "></path>
                </g>
            </g>
            <g id="person" mask="url(#mask-2)" stroke="#FFFFFF" stroke-width="3">
                <g transform="translate(6.000000, 91.000000)">
                    <circle id="Oval-3-Copy-6" cx="28.5" cy="33" r="3"></circle>
                    <path d="M20.2871539,12.9107448 C24.0139582,15.197195 26.5,19.3104269 26.5,24.0059089 L26.5,27.3414114 C24.1696153,28.1650842 22.5,30.3875623 22.5,33 C22.5,35.6124377 24.1696153,37.8349158 26.5,38.6585886 L26.5,38.6585886 L26.5,53.9940911 C26.5,61.1770562 20.6812804,67 13.5,67 C6.32029825,67 0.5,61.1786248 0.5,53.9940911 L0.5,24.0059089 C0.5,19.3111723 2.98566372,15.1974151 6.71281154,12.9107051 L6.71281154,12.9107051" id="Rectangle-14"></path>
                    <circle id="Oval-3" cx="13.5" cy="9" r="9"></circle>
                </g>
            </g>
            <g id="energy" mask="url(#mask-2)" stroke="#FFFFFF">
                <g transform="translate(3.000000, 59.000000)">
                    <path d="M0.803330023,5.31416049 L33.300825,12.0624918 C33.300825,12.0624918 104.104505,2.30470717 96.4046896,0.705786778" id="Path-78"></path>
                    <path d="M0.803330023,10.3141605 L33.300825,17.0624918 C33.300825,17.0624918 104.104505,7.30470717 96.4046896,5.70578678" id="Path-78-Copy"></path>
                    <path d="M34.5,4.5 L28.5,58.5" id="Line" stroke-linecap="round" stroke-linejoin="round"></path>
                    <path d="M35.5,18.5 L28.5,57.5" id="Line-Copy-2" stroke-linecap="round" stroke-linejoin="round"></path>
                    <path d="M37.5,39.5 L32.5,62.5" id="Line-Copy-4" stroke-linecap="round" stroke-linejoin="round"></path>
                    <path d="M36.5,29.5 L29.5,64.5" id="Line-Copy-5" stroke-linecap="round" stroke-linejoin="round"></path>
                    <path d="M34.5,4.5 L40.5,75.5" id="Line-Copy" stroke-linecap="round" stroke-linejoin="round"></path>
                    <path d="M32.5,23.5 L40.5,75.5" id="Line-Copy-3" stroke-linecap="round" stroke-linejoin="round"></path>
                    <path d="M31.5,33.5 L37.5,75.5" id="Line-Copy-6" stroke-linecap="round" stroke-linejoin="round"></path>
                    <path d="M30.5,43.5 L34.5,75.5" id="Line-Copy-7" stroke-linecap="round" stroke-linejoin="round"></path>
                </g>
            </g>
            <path d="M29.71,46.27 L25.36,34.06 C25.2199993,33.6799981 25.0800007,33.4400005 24.94,33.34 C24.7999993,33.2399995 24.4000033,33.1200007 23.74,32.98 L23.92,31.81 L29.47,31.81 L29.59,32.98 L28.27,33.4 C28.1299993,33.4200001 28.06,33.4899994 28.06,33.61 C28.06,33.6300001 28.0999996,33.7599988 28.18,34 L30.94,42.64 C31.0200004,42.840001 31.06,43.0799986 31.06,43.36 L31.06,43.48 L31.3,43.48 C31.3,43.2599989 31.3799992,42.9600019 31.54,42.58 L34.27,35.77 L33.7,34.06 C33.5799994,33.6999982 33.4550007,33.4650006 33.325,33.355 C33.1949994,33.2449995 32.8800025,33.1200007 32.38,32.98 L32.56,31.81 L37.48,31.81 L37.6,32.98 L36.28,33.4 C36.1399993,33.4200001 36.07,33.4899994 36.07,33.61 C36.07,33.6300001 36.1099996,33.7599988 36.19,34 L38.92,42.64 C39.0000004,42.8800012 39.04,43.1199988 39.04,43.36 L39.04,43.48 L39.28,43.48 C39.28,43.3599994 39.3599992,43.0600024 39.52,42.58 L42.25,34.75 C42.3700006,34.4299984 42.43,34.2150006 42.43,34.105 C42.43,33.9949995 42.4250001,33.9150003 42.415,33.865 C42.405,33.8149998 42.3800002,33.7650003 42.34,33.715 C42.2999998,33.6649998 42.2650002,33.6250002 42.235,33.595 C42.2049999,33.5649999 42.1550004,33.5300002 42.085,33.49 C42.0149997,33.4499998 41.9550003,33.4150002 41.905,33.385 C41.8549998,33.3549999 41.7800005,33.3200002 41.68,33.28 C41.5799995,33.2399998 41.4950004,33.2100001 41.425,33.19 C41.3549997,33.1699999 41.2600006,33.1350003 41.14,33.085 C41.0199994,33.0349998 40.9200004,33.0000001 40.84,32.98 L41.02,31.81 L45.94,31.81 L46.06,32.98 C45.4199968,33.1400008 45.0300007,33.2449998 44.89,33.295 C44.7499993,33.3450003 44.6700001,33.4099996 44.65,33.49 L39.67,46.27 L37.72,46.27 L35.26,38.71 C35.1599995,38.4099985 35.11,38.1400012 35.11,37.9 L34.87,37.9 C34.87,38.1200011 34.8100006,38.3799985 34.69,38.68 L31.66,46.27 L29.71,46.27 Z M56.92,44.02 C55.7599942,45.5200075 54.3700081,46.27 52.75,46.27 C51.1299919,46.27 49.8000052,45.6250065 48.76,44.335 C47.7199948,43.0449936 47.2,41.2800112 47.2,39.04 C47.2,36.7999888 47.7899941,34.9600072 48.97,33.52 C50.1500059,32.0799928 51.7999894,31.36 53.92,31.36 C55.3800073,31.36 56.4599965,31.6199974 57.16,32.14 L57.37,32.05 C57.2899996,31.7299984 57.25,31.2900028 57.25,30.73 L57.25,25.69 C57.25,25.2699979 57.0450021,24.9550011 56.635,24.745 C56.224998,24.534999 55.4900053,24.3600007 54.43,24.22 L54.61,23.26 C56.7500107,22.9799986 58.419994,22.84 59.62,22.84 L59.95,23.14 L59.95,43.06 C59.95,43.5800026 60.0749988,43.944999 60.325,44.155 C60.5750013,44.3650011 61.2099949,44.569999 62.23,44.77 L62.05,45.73 L58.45,46.12 C58.249999,46.12 58.0300012,45.920002 57.79,45.52 C57.5499988,45.119998 57.43,44.7600016 57.43,44.44 C57.43,44.1199984 57.4399999,43.8800008 57.46,43.72 L57.22,43.63 L56.92,44.02 Z M51.055,42.7 C51.6850032,43.6400047 52.4799952,44.11 53.44,44.11 C54.4000048,44.11 55.3999948,43.7700034 56.44,43.09 C56.9800027,42.7299982 57.25,42.2700028 57.25,41.71 L57.25,34.54 C56.4299959,33.5599951 55.1500087,33.07 53.41,33.07 C52.5499957,33.07 51.8700025,33.3499972 51.37,33.91 C50.5299958,34.8500047 50.11,36.3149901 50.11,38.305 C50.11,40.29501 50.4249969,41.7599953 51.055,42.7 L51.055,42.7 Z M64.84,50.14 L64.69,48.46 C67.4700139,48.0999982 69.664992,47.4000052 71.275,46.36 C72.8850081,45.3199948 73.69,44.0400076 73.69,42.52 C73.69,41.5599952 73.3250037,40.7450034 72.595,40.075 C71.8649964,39.4049967 70.8500065,39.07 69.55,39.07 C68.2499935,39.07 66.9800062,39.2999977 65.74,39.76 L65.08,38.98 L65.74,29.89 L73.42,29.89 C73.5200005,29.89 73.5999997,29.8600003 73.66,29.8 C73.8200008,29.599999 74.0099989,28.900006 74.23,27.7 L75.76,27.91 C75.6799996,29.7900094 75.540001,31.2599947 75.34,32.32 L67.54,32.32 L67.18,37.69 C68.180005,37.3499983 69.2899939,37.18 70.51,37.18 C72.4900099,37.18 74.0349945,37.6049958 75.145,38.455 C76.2550056,39.3050043 76.81,40.4599927 76.81,41.92 C76.81,44.0200105 75.710011,45.8349924 73.51,47.365 C71.309989,48.8950077 68.4200179,49.8199984 64.84,50.14 L64.84,50.14 Z" fill="#FFFFFF" mask="url(#mask-2)"></path>
        </g>
    </g>
</svg>