<?xml version="1.0" encoding="UTF-8" standalone="no"?>
<svg width="118px" height="153px" viewBox="0 0 118 153" version="1.1" xmlns="http://www.w3.org/2000/svg" xmlns:xlink="http://www.w3.org/1999/xlink">
    <title>wd6</title>
    <defs>
        <rect id="path-1" x="2" y="2" width="100" height="135" rx="1"></rect>
    </defs>
    <g id="Page-1" stroke="none" stroke-width="1" fill="none" fill-rule="evenodd">
        <g id="wd6">
            <g id="Last-Page-+-Second-Page" transform="translate(11.000000, 10.000000)" stroke="#FFFFFF" stroke-width="4" stroke-linecap="round" stroke-linejoin="round">
                <path d="M6,141 L104.5,141 L104.5,8" id="Last-Page"></path>
                <path d="M0,134 L97.5,134 L97.5,0" id="Second-Page"></path>
            </g>
            <mask id="mask-2" fill="white">
                <use xlink:href="#path-1"></use>
            </mask>
            <use id="Page" stroke="#FFFFFF" stroke-width="4" stroke-linecap="round" stroke-linejoin="round" xlink:href="#path-1"></use>
            <g id="people" mask="url(#mask-2)" stroke="#FFFFFF" stroke-width="3">
                <g transform="translate(47.000000, 83.000000)">
                    <path d="M20.2042711,13.0000397 C23.9310754,15.2864899 26.4171172,19.3997218 26.4171172,24.0952038 L26.4171172,27.4307063 C24.0867324,28.2543791 22.4171172,30.4768572 22.4171172,33.0892949 C22.4171172,35.7017325 24.0867324,37.9242106 26.4171172,38.7478835 L26.4171172,38.7478835 L26.4171172,54.083386 C26.4171172,61.2663511 20.5983975,67.0892949 13.4171172,67.0892949 C6.23741542,67.0892949 0.41711717,61.2679196 0.41711717,54.083386 L0.41711717,24.0952038 C0.41711717,19.4004672 2.90278089,15.2867099 6.62992871,13 L6.62992871,13" id="Rectangle-14-Copy"></path>
                    <circle id="Oval-3-Copy-2" cx="13.4171172" cy="9" r="9"></circle>
                    <path d="M50.2042711,13.0000397 C53.9310754,15.2864899 56.4171172,19.3997218 56.4171172,24.0952038 L56.4171172,54.083386 C56.4171172,61.2663511 50.5983975,67.0892949 43.4171172,67.0892949 C36.2374154,67.0892949 30.4171172,61.2679196 30.4171172,54.083386 L30.4171172,38.7478835 C32.7475019,37.9242106 34.4171172,35.7017325 34.4171172,33.0892949 C34.4171172,30.4768572 32.7475019,28.2543791 30.4171172,27.4307063 L30.4171172,27.4307063 L30.4171172,24.0952038 C30.4171172,19.4004672 32.9027809,15.2867099 36.6299287,13 L36.6299287,13" id="Rectangle-14-Copy-2"></path>
                    <circle id="Oval-3-Copy-3" cx="43.4171172" cy="9" r="9"></circle>
                    <circle id="Oval-3-Copy-7" cx="28.4171172" cy="33" r="3"></circle>
                </g>
            </g>
            <g id="worker" mask="url(#mask-2)" stroke="#FFFFFF">
                <g transform="translate(0.000000, 83.000000)">
                    <path d="M27.1829553,35.3300225 C28.8398096,35.3300225 36.298038,25.8934677 36.298038,25.8934677 C36.298038,25.8934677 37.7327379,26.6145818 39.4439388,25.8934675 C41.5621062,25.0008542 44.0482319,22.6076015 44.0993658,22.3300226 C44.1379581,22.120525 42.5866555,19.5540305 41.7334924,20.2664177 C40.4054628,21.3753164 39.0489537,22.8258372 38.3794227,22.852586 C37.1812187,22.9004562 36.1116756,21.3386448 35.984428,20.2664177 C35.9185389,19.711216 37.3566604,18.5679793 38.9481407,16.9718989 C39.1013927,16.8182039 37.4588418,15.1234979 37.3566604,15.0838999 C36.5958657,14.789072 34.1183593,16.6747403 33.1829553,18.7934717 C32.4818645,20.3814735 33.1829553,22.3300225 33.1829553,22.3300225 C33.1829553,22.3300225 24.1829553,30.6731683 24.1829553,32.3300225 C24.1829553,33.9868768 25.5261011,35.3300225 27.1829553,35.3300225 Z" id="Oval-3-Copy-6" stroke-width="2" transform="translate(34.141514, 25.191697) rotate(-4.000000) translate(-34.141514, -25.191697) "></path>
                    <path d="M20.2871539,12.9107448 C24.0139582,15.197195 26.5,19.3104269 26.5,24.0059089 L26.5,27.3414114 C24.1696153,28.1650842 22.5,30.3875623 22.5,33 C22.5,35.6124377 24.1696153,37.8349158 26.5,38.6585886 L26.5,38.6585886 L26.5,53.9940911 C26.5,61.1770562 20.6812804,67 13.5,67 C6.32029825,67 0.5,61.1786248 0.5,53.9940911 L0.5,24.0059089 C0.5,19.3111723 2.98566372,15.1974151 6.71281154,12.9107051 L6.71281154,12.9107051" id="Rectangle-14" stroke-width="3"></path>
                    <circle id="Oval-3" stroke-width="3" cx="13.5" cy="9" r="9"></circle>
                </g>
            </g>
            <path d="M30.21,46.27 L25.86,34.06 C25.7199993,33.6799981 25.5800007,33.4400005 25.44,33.34 C25.2999993,33.2399995 24.9000033,33.1200007 24.24,32.98 L24.42,31.81 L29.97,31.81 L30.09,32.98 L28.77,33.4 C28.6299993,33.4200001 28.56,33.4899994 28.56,33.61 C28.56,33.6300001 28.5999996,33.7599988 28.68,34 L31.44,42.64 C31.5200004,42.840001 31.56,43.0799986 31.56,43.36 L31.56,43.48 L31.8,43.48 C31.8,43.2599989 31.8799992,42.9600019 32.04,42.58 L34.77,35.77 L34.2,34.06 C34.0799994,33.6999982 33.9550007,33.4650006 33.825,33.355 C33.6949994,33.2449995 33.3800025,33.1200007 32.88,32.98 L33.06,31.81 L37.98,31.81 L38.1,32.98 L36.78,33.4 C36.6399993,33.4200001 36.57,33.4899994 36.57,33.61 C36.57,33.6300001 36.6099996,33.7599988 36.69,34 L39.42,42.64 C39.5000004,42.8800012 39.54,43.1199988 39.54,43.36 L39.54,43.48 L39.78,43.48 C39.78,43.3599994 39.8599992,43.0600024 40.02,42.58 L42.75,34.75 C42.8700006,34.4299984 42.93,34.2150006 42.93,34.105 C42.93,33.9949995 42.9250001,33.9150003 42.915,33.865 C42.905,33.8149998 42.8800002,33.7650003 42.84,33.715 C42.7999998,33.6649998 42.7650002,33.6250002 42.735,33.595 C42.7049999,33.5649999 42.6550004,33.5300002 42.585,33.49 C42.5149997,33.4499998 42.4550003,33.4150002 42.405,33.385 C42.3549998,33.3549999 42.2800005,33.3200002 42.18,33.28 C42.0799995,33.2399998 41.9950004,33.2100001 41.925,33.19 C41.8549997,33.1699999 41.7600006,33.1350003 41.64,33.085 C41.5199994,33.0349998 41.4200004,33.0000001 41.34,32.98 L41.52,31.81 L46.44,31.81 L46.56,32.98 C45.9199968,33.1400008 45.5300007,33.2449998 45.39,33.295 C45.2499993,33.3450003 45.1700001,33.4099996 45.15,33.49 L40.17,46.27 L38.22,46.27 L35.76,38.71 C35.6599995,38.4099985 35.61,38.1400012 35.61,37.9 L35.37,37.9 C35.37,38.1200011 35.3100006,38.3799985 35.19,38.68 L32.16,46.27 L30.21,46.27 Z M57.42,44.02 C56.2599942,45.5200075 54.8700081,46.27 53.25,46.27 C51.6299919,46.27 50.3000052,45.6250065 49.26,44.335 C48.2199948,43.0449936 47.7,41.2800112 47.7,39.04 C47.7,36.7999888 48.2899941,34.9600072 49.47,33.52 C50.6500059,32.0799928 52.2999894,31.36 54.42,31.36 C55.8800073,31.36 56.9599965,31.6199974 57.66,32.14 L57.87,32.05 C57.7899996,31.7299984 57.75,31.2900028 57.75,30.73 L57.75,25.69 C57.75,25.2699979 57.5450021,24.9550011 57.135,24.745 C56.724998,24.534999 55.9900053,24.3600007 54.93,24.22 L55.11,23.26 C57.2500107,22.9799986 58.919994,22.84 60.12,22.84 L60.45,23.14 L60.45,43.06 C60.45,43.5800026 60.5749988,43.944999 60.825,44.155 C61.0750013,44.3650011 61.7099949,44.569999 62.73,44.77 L62.55,45.73 L58.95,46.12 C58.749999,46.12 58.5300012,45.920002 58.29,45.52 C58.0499988,45.119998 57.93,44.7600016 57.93,44.44 C57.93,44.1199984 57.9399999,43.8800008 57.96,43.72 L57.72,43.63 L57.42,44.02 Z M51.555,42.7 C52.1850032,43.6400047 52.9799952,44.11 53.94,44.11 C54.9000048,44.11 55.8999948,43.7700034 56.94,43.09 C57.4800027,42.7299982 57.75,42.2700028 57.75,41.71 L57.75,34.54 C56.9299959,33.5599951 55.6500087,33.07 53.91,33.07 C53.0499957,33.07 52.3700025,33.3499972 51.87,33.91 C51.0299958,34.8500047 50.61,36.3149901 50.61,38.305 C50.61,40.29501 50.9249969,41.7599953 51.555,42.7 L51.555,42.7 Z M76.44,35.125 C77.5400055,36.2950059 78.09,37.8049908 78.09,39.655 C78.09,41.5050093 77.4800061,43.0699936 76.26,44.35 C75.0399939,45.6300064 73.43501,46.27 71.445,46.27 C69.4549901,46.27 67.8900057,45.5800069 66.75,44.2 C65.6099943,42.8199931 65.04,40.9600117 65.04,38.62 C65.04,35.3799838 66.0699897,32.5800118 68.13,30.22 C70.1900103,27.8599882 72.6799854,26.3200036 75.6,25.6 L76.2,26.83 C71.799978,28.6700092 69.1700043,31.4799811 68.31,35.26 L68.55,35.35 C69.5700051,34.0299934 70.8649922,33.37 72.435,33.37 C74.0050079,33.37 75.3399945,33.9549942 76.44,35.125 L76.44,35.125 Z M74.1,43.96 C74.8600038,43.1399959 75.24,41.9400079 75.24,40.36 C75.24,38.7799921 74.9500029,37.5650043 74.37,36.715 C73.7899971,35.8649958 73.0600044,35.44 72.18,35.44 C71.7599979,35.44 71.2150034,35.5099993 70.545,35.65 C69.8749967,35.7900007 69.3200022,36.0099985 68.88,36.31 C68.2199967,36.7500022 67.89,37.4399953 67.89,38.38 C67.89,42.6600214 69.2799861,44.8 72.06,44.8 C72.9000042,44.8 73.5799974,44.5200028 74.1,43.96 L74.1,43.96 Z" fill="#FFFFFF" mask="url(#mask-2)"></path>
        </g>
    </g>
</svg>