<?xml version="1.0" encoding="UTF-8" standalone="no"?>
<svg width="118px" height="153px" viewBox="0 0 118 153" version="1.1" xmlns="http://www.w3.org/2000/svg" xmlns:xlink="http://www.w3.org/1999/xlink">
    <title>wd7</title>
    <defs>
        <rect id="path-1" x="2" y="2" width="100" height="135" rx="1"></rect>
    </defs>
    <g id="Page-1" stroke="none" stroke-width="1" fill="none" fill-rule="evenodd">
        <g id="wd7">
            <g id="Last-Page-+-Second-Page" transform="translate(11.000000, 10.000000)" stroke="#FFFFFF" stroke-width="4" stroke-linecap="round" stroke-linejoin="round">
                <path d="M6,141 L104.5,141 L104.5,8" id="Last-Page"></path>
                <path d="M0,134 L97.5,134 L97.5,0" id="Second-Page"></path>
            </g>
            <mask id="mask-2" fill="white">
                <use xlink:href="#path-1"></use>
            </mask>
            <use id="Page" stroke="#FFFFFF" stroke-width="4" stroke-linecap="round" stroke-linejoin="round" xlink:href="#path-1"></use>
            <polygon id="Triangle-1" stroke="#FFFFFF" stroke-width="3" stroke-linecap="round" stroke-linejoin="round" mask="url(#mask-2)" points="93.5 94 109 108 78 108 "></polygon>
            <path d="M26.6135601,156.02409 L30.0958914,95.5481875 L33.6444658,156.02409 L26.6135601,156.02409 Z" id="Path-88" stroke="#FFFFFF" stroke-width="2" stroke-linecap="round" stroke-linejoin="round" mask="url(#mask-2)"></path>
            <path d="M13.2634233,96.0481875 L46.7634233,98.5" id="Line" stroke="#FFFFFF" stroke-width="3" stroke-linecap="round" stroke-linejoin="round" mask="url(#mask-2)"></path>
            <path d="M44.435788,99.1979364 L38.2122139,118.639769 C38.2122139,118.639769 42.3419786,120.740172 44.435788,120.81752 C46.1998397,120.882685 49.785797,119.067307 49.785797,119.067307 L44.435788,99.1979364 Z" id="Path-90" stroke="#FFFFFF" stroke-width="2" stroke-linecap="round" stroke-linejoin="round" mask="url(#mask-2)"></path>
            <path d="M38.1855189,118.227942 C38.1855189,118.227942 42.6100031,117 44.8192712,117 C46.4683192,117 49.5205618,118.682639 49.5205618,118.682639" id="Path-91" stroke="#FFFFFF" stroke-linecap="round" stroke-linejoin="round" mask="url(#mask-2)"></path>
            <path d="M16.435788,96.1979364 L10.2122139,115.639769 C10.2122139,115.639769 14.3419786,117.740172 16.435788,117.81752 C18.1998397,117.882685 21.785797,116.067307 21.785797,116.067307 L16.435788,96.1979364 Z" id="Path-90-Copy" stroke="#FFFFFF" stroke-width="2" stroke-linecap="round" stroke-linejoin="round" mask="url(#mask-2)">
                <g transform="translate(15.999005, 107.008585) scale(-1, 1) translate(-15.999005, -107.008585) "></g>
            </path>
            <path d="M10.1855189,115.227942 C10.1855189,115.227942 14.6100031,114 16.8192712,114 C18.4683192,114 21.5205618,115.682639 21.5205618,115.682639" id="Path-91-Copy" stroke="#FFFFFF" stroke-linecap="round" stroke-linejoin="round" mask="url(#mask-2)">
                <g transform="translate(15.853040, 114.841319) scale(-1, 1) translate(-15.853040, -114.841319) "></g>
            </path>
            <rect id="Rectangle-22" stroke="#FFFFFF" stroke-width="2" mask="url(#mask-2)" x="54" y="88" width="16" height="38" rx="3"></rect>
            <circle id="Oval-31" stroke="#FFFFFF" stroke-width="2" mask="url(#mask-2)" cx="62" cy="96" r="5"></circle>
            <circle id="Oval-31-Copy" stroke="#FFFFFF" stroke-width="2" mask="url(#mask-2)" cx="62" cy="107" r="5"></circle>
            <circle id="Oval-31-Copy-2" stroke="#FFFFFF" stroke-width="2" mask="url(#mask-2)" cx="62" cy="118" r="5"></circle>
            <path d="M62.5,125.5 L62.5,138.5" id="Line" stroke="#FFFFFF" stroke-width="3" stroke-linecap="square" mask="url(#mask-2)"></path>
            <rect id="Rectangle-26" stroke="#FFFFFF" stroke-width="3" stroke-linecap="round" stroke-linejoin="round" mask="url(#mask-2)" x="80" y="107" width="23" height="30"></rect>
            <rect id="Rectangle-27" stroke="#FFFFFF" stroke-linecap="round" stroke-linejoin="round" mask="url(#mask-2)" x="85" y="113" width="7" height="6"></rect>
            <rect id="Rectangle-27-Copy" stroke="#FFFFFF" stroke-linecap="round" stroke-linejoin="round" mask="url(#mask-2)" x="85" y="121" width="7" height="6"></rect>
            <rect id="Rectangle-27-Copy-2" stroke="#FFFFFF" stroke-linecap="round" stroke-linejoin="round" mask="url(#mask-2)" x="95" y="113" width="7" height="6"></rect>
            <path d="M29.71,46.27 L25.36,34.06 C25.2199993,33.6799981 25.0800007,33.4400005 24.94,33.34 C24.7999993,33.2399995 24.4000033,33.1200007 23.74,32.98 L23.92,31.81 L29.47,31.81 L29.59,32.98 L28.27,33.4 C28.1299993,33.4200001 28.06,33.4899994 28.06,33.61 C28.06,33.6300001 28.0999996,33.7599988 28.18,34 L30.94,42.64 C31.0200004,42.840001 31.06,43.0799986 31.06,43.36 L31.06,43.48 L31.3,43.48 C31.3,43.2599989 31.3799992,42.9600019 31.54,42.58 L34.27,35.77 L33.7,34.06 C33.5799994,33.6999982 33.4550007,33.4650006 33.325,33.355 C33.1949994,33.2449995 32.8800025,33.1200007 32.38,32.98 L32.56,31.81 L37.48,31.81 L37.6,32.98 L36.28,33.4 C36.1399993,33.4200001 36.07,33.4899994 36.07,33.61 C36.07,33.6300001 36.1099996,33.7599988 36.19,34 L38.92,42.64 C39.0000004,42.8800012 39.04,43.1199988 39.04,43.36 L39.04,43.48 L39.28,43.48 C39.28,43.3599994 39.3599992,43.0600024 39.52,42.58 L42.25,34.75 C42.3700006,34.4299984 42.43,34.2150006 42.43,34.105 C42.43,33.9949995 42.4250001,33.9150003 42.415,33.865 C42.405,33.8149998 42.3800002,33.7650003 42.34,33.715 C42.2999998,33.6649998 42.2650002,33.6250002 42.235,33.595 C42.2049999,33.5649999 42.1550004,33.5300002 42.085,33.49 C42.0149997,33.4499998 41.9550003,33.4150002 41.905,33.385 C41.8549998,33.3549999 41.7800005,33.3200002 41.68,33.28 C41.5799995,33.2399998 41.4950004,33.2100001 41.425,33.19 C41.3549997,33.1699999 41.2600006,33.1350003 41.14,33.085 C41.0199994,33.0349998 40.9200004,33.0000001 40.84,32.98 L41.02,31.81 L45.94,31.81 L46.06,32.98 C45.4199968,33.1400008 45.0300007,33.2449998 44.89,33.295 C44.7499993,33.3450003 44.6700001,33.4099996 44.65,33.49 L39.67,46.27 L37.72,46.27 L35.26,38.71 C35.1599995,38.4099985 35.11,38.1400012 35.11,37.9 L34.87,37.9 C34.87,38.1200011 34.8100006,38.3799985 34.69,38.68 L31.66,46.27 L29.71,46.27 Z M56.92,44.02 C55.7599942,45.5200075 54.3700081,46.27 52.75,46.27 C51.1299919,46.27 49.8000052,45.6250065 48.76,44.335 C47.7199948,43.0449936 47.2,41.2800112 47.2,39.04 C47.2,36.7999888 47.7899941,34.9600072 48.97,33.52 C50.1500059,32.0799928 51.7999894,31.36 53.92,31.36 C55.3800073,31.36 56.4599965,31.6199974 57.16,32.14 L57.37,32.05 C57.2899996,31.7299984 57.25,31.2900028 57.25,30.73 L57.25,25.69 C57.25,25.2699979 57.0450021,24.9550011 56.635,24.745 C56.224998,24.534999 55.4900053,24.3600007 54.43,24.22 L54.61,23.26 C56.7500107,22.9799986 58.419994,22.84 59.62,22.84 L59.95,23.14 L59.95,43.06 C59.95,43.5800026 60.0749988,43.944999 60.325,44.155 C60.5750013,44.3650011 61.2099949,44.569999 62.23,44.77 L62.05,45.73 L58.45,46.12 C58.249999,46.12 58.0300012,45.920002 57.79,45.52 C57.5499988,45.119998 57.43,44.7600016 57.43,44.44 C57.43,44.1199984 57.4399999,43.8800008 57.46,43.72 L57.22,43.63 L56.92,44.02 Z M51.055,42.7 C51.6850032,43.6400047 52.4799952,44.11 53.44,44.11 C54.4000048,44.11 55.3999948,43.7700034 56.44,43.09 C56.9800027,42.7299982 57.25,42.2700028 57.25,41.71 L57.25,34.54 C56.4299959,33.5599951 55.1500087,33.07 53.41,33.07 C52.5499957,33.07 51.8700025,33.3499972 51.37,33.91 C50.5299958,34.8500047 50.11,36.3149901 50.11,38.305 C50.11,40.29501 50.4249969,41.7599953 51.055,42.7 L51.055,42.7 Z M66.28,49.63 C66.6000016,47.6499901 67.5399922,44.9300173 69.1,41.47 C70.6600078,38.0099827 72.3999904,34.9600132 74.32,32.32 L74.26,32.11 L68.95,32.2 C67.6099933,32.2400002 66.7100023,32.2799998 66.25,32.32 C66.0899992,32.3400001 65.9550006,32.4849987 65.845,32.755 C65.7349995,33.0250014 65.5600012,33.6799948 65.32,34.72 L63.94,34.57 C63.8999998,33.9299968 63.88,33.1750044 63.88,32.305 C63.88,31.4349957 63.9399994,30.6300037 64.06,29.89 L76.39,29.89 L76.39,31.69 C72.1299787,38.3300332 69.8100019,44.4399721 69.43,50.02 C69.2099989,50.0800003 68.9200018,50.11 68.56,50.11 C67.5399949,50.11 66.7800025,49.9500016 66.28,49.63 L66.28,49.63 Z" fill="#FFFFFF" mask="url(#mask-2)"></path>
        </g>
    </g>
</svg>