<?xml version="1.0" encoding="UTF-8" standalone="no"?>
<svg width="118px" height="153px" viewBox="0 0 118 153" version="1.1" xmlns="http://www.w3.org/2000/svg" xmlns:xlink="http://www.w3.org/1999/xlink">
    <title>wd8</title>
    <defs>
        <rect id="path-1" x="2" y="2" width="100" height="135" rx="1"></rect>
    </defs>
    <g id="Page-1" stroke="none" stroke-width="1" fill="none" fill-rule="evenodd">
        <g id="wd8">
            <g id="Last-Page-+-Second-Page" transform="translate(11.000000, 10.000000)" stroke="#FFFFFF" stroke-width="4" stroke-linecap="round" stroke-linejoin="round">
                <path d="M6,141 L104.5,141 L104.5,8" id="Last-Page"></path>
                <path d="M0,134 L97.5,134 L97.5,0" id="Second-Page"></path>
            </g>
            <mask id="mask-2" fill="white">
                <use xlink:href="#path-1"></use>
            </mask>
            <use id="Page" stroke="#FFFFFF" stroke-width="4" stroke-linecap="round" stroke-linejoin="round" xlink:href="#path-1"></use>
            <g id="big-ear" mask="url(#mask-2)" stroke-linecap="round" stroke="#FFFFFF" stroke-linejoin="round">
                <g transform="translate(84.783031, 107.966096) rotate(5.000000) translate(-84.783031, -107.966096) translate(71.283031, 70.466096)">
                    <path d="M14.9923894,74.3256885 C14.9923894,74.3256885 15.5626478,41.0968446 15.5626478,24.608595 C15.5626478,20.9301779 14.9923894,13.8256885 14.9923894,13.8256885" id="Line" stroke-width="3"></path>
                    <path d="M21.1728993,11.3725704 C22.4558655,8.13096677 23.2022692,3.93981198 23.2022692,3.93981198 C23.2022692,3.93981198 20.2047101,5.12445876 17.5658328,6.7287612 L17.5658328,6.7287612 C16.8015063,3.61271426 15.3497879,0.417738604 15.3497879,0.417738604 C15.3497879,0.417738604 13.1189202,3.73736359 11.7716886,6.87636256 C8.79050773,4.87607395 3.8141633,3.39595383 3.8141633,3.39595383 C3.8141633,3.39595383 5.12341835,8.24895887 6.89888378,11.4079681 C3.90184771,12.5465597 0.912844257,14.3736254 0.912844257,14.3736254 C0.912844257,14.3736254 4.7503299,16.3206655 8.12458608,17.2409509 L8.12458608,17.2409509 C7.08606778,20.261526 6.49238056,23.5951577 6.49238056,23.5951577 C6.49238056,23.5951577 11.6391241,21.561145 14.3816839,19.2142097 L14.3816839,19.2142097 C16.6300706,21.9253877 23.2022692,24.5227456 23.2022692,24.5227456 C23.2022692,24.5227456 22.3992076,20.0134492 21.0272663,16.7318634 C24.0175532,15.7426544 26.9467258,14.2564686 26.9467258,14.2564686 C26.9467258,14.2564686 24.0971876,12.5146528 21.1728993,11.3725704 Z" id="Path-52-Copy-12" stroke-width="2"></path>
                </g>
            </g>
            <ellipse id="Oval-55" stroke="#FFFFFF" stroke-width="3" mask="url(#mask-2)" cx="13.5" cy="131" rx="15.5" ry="17"></ellipse>
            <ellipse id="Oval-56" stroke="#FFFFFF" stroke-width="2" mask="url(#mask-2)" cx="33.5" cy="107" rx="10.5" ry="3"></ellipse>
            <path d="M23.0242032,107.034102 C23.0242032,107.034102 24.951822,112.583944 25.170219,120.099436 M42.8950876,137.503961 C42.8950876,137.503961 41.8296268,127.499909 42.0000008,122.796294 C42.1979309,117.331922 44,107 44,107" id="Path-116" stroke="#FFFFFF" stroke-width="2" mask="url(#mask-2)"></path>
            <g id="Rectangle-30-Copy-+-Rectangle-30-+-Rectangle-31" mask="url(#mask-2)" stroke="#FFFFFF">
                <g transform="translate(49.000000, 99.000000)">
                    <path d="M4.42289956,34.4375 L0,34.4375 L0,0 L23.4782609,0 L23.4782609,4.25404203" id="Rectangle-30-Copy" stroke-width="2"></path>
                    <rect id="Rectangle-30" stroke-width="2" x="3.52173913" y="3.5625" width="23.4782609" height="34.4375"></rect>
                    <path d="M15.2608696,3.5625 L21.1304348,3.5625 L21.1304348,19 L18.1956522,17.1033812 L15.2608696,19 L15.2608696,3.5625 Z" id="Rectangle-31" stroke-width="1"></path>
                </g>
            </g>
            <path d="M30.71,46.77 L26.36,34.56 C26.2199993,34.1799981 26.0800007,33.9400005 25.94,33.84 C25.7999993,33.7399995 25.4000033,33.6200007 24.74,33.48 L24.92,32.31 L30.47,32.31 L30.59,33.48 L29.27,33.9 C29.1299993,33.9200001 29.06,33.9899994 29.06,34.11 C29.06,34.1300001 29.0999996,34.2599988 29.18,34.5 L31.94,43.14 C32.0200004,43.340001 32.06,43.5799986 32.06,43.86 L32.06,43.98 L32.3,43.98 C32.3,43.7599989 32.3799992,43.4600019 32.54,43.08 L35.27,36.27 L34.7,34.56 C34.5799994,34.1999982 34.4550007,33.9650006 34.325,33.855 C34.1949994,33.7449995 33.8800025,33.6200007 33.38,33.48 L33.56,32.31 L38.48,32.31 L38.6,33.48 L37.28,33.9 C37.1399993,33.9200001 37.07,33.9899994 37.07,34.11 C37.07,34.1300001 37.1099996,34.2599988 37.19,34.5 L39.92,43.14 C40.0000004,43.3800012 40.04,43.6199988 40.04,43.86 L40.04,43.98 L40.28,43.98 C40.28,43.8599994 40.3599992,43.5600024 40.52,43.08 L43.25,35.25 C43.3700006,34.9299984 43.43,34.7150006 43.43,34.605 C43.43,34.4949995 43.4250001,34.4150003 43.415,34.365 C43.405,34.3149998 43.3800002,34.2650003 43.34,34.215 C43.2999998,34.1649998 43.2650002,34.1250002 43.235,34.095 C43.2049999,34.0649999 43.1550004,34.0300002 43.085,33.99 C43.0149997,33.9499998 42.9550003,33.9150002 42.905,33.885 C42.8549998,33.8549999 42.7800005,33.8200002 42.68,33.78 C42.5799995,33.7399998 42.4950004,33.7100001 42.425,33.69 C42.3549997,33.6699999 42.2600006,33.6350003 42.14,33.585 C42.0199994,33.5349998 41.9200004,33.5000001 41.84,33.48 L42.02,32.31 L46.94,32.31 L47.06,33.48 C46.4199968,33.6400008 46.0300007,33.7449998 45.89,33.795 C45.7499993,33.8450003 45.6700001,33.9099996 45.65,33.99 L40.67,46.77 L38.72,46.77 L36.26,39.21 C36.1599995,38.9099985 36.11,38.6400012 36.11,38.4 L35.87,38.4 C35.87,38.6200011 35.8100006,38.8799985 35.69,39.18 L32.66,46.77 L30.71,46.77 Z M57.92,44.52 C56.7599942,46.0200075 55.3700081,46.77 53.75,46.77 C52.1299919,46.77 50.8000052,46.1250065 49.76,44.835 C48.7199948,43.5449936 48.2,41.7800112 48.2,39.54 C48.2,37.2999888 48.7899941,35.4600072 49.97,34.02 C51.1500059,32.5799928 52.7999894,31.86 54.92,31.86 C56.3800073,31.86 57.4599965,32.1199974 58.16,32.64 L58.37,32.55 C58.2899996,32.2299984 58.25,31.7900028 58.25,31.23 L58.25,26.19 C58.25,25.7699979 58.0450021,25.4550011 57.635,25.245 C57.224998,25.034999 56.4900053,24.8600007 55.43,24.72 L55.61,23.76 C57.7500107,23.4799986 59.419994,23.34 60.62,23.34 L60.95,23.64 L60.95,43.56 C60.95,44.0800026 61.0749988,44.444999 61.325,44.655 C61.5750013,44.8650011 62.2099949,45.069999 63.23,45.27 L63.05,46.23 L59.45,46.62 C59.249999,46.62 59.0300012,46.420002 58.79,46.02 C58.5499988,45.619998 58.43,45.2600016 58.43,44.94 C58.43,44.6199984 58.4399999,44.3800008 58.46,44.22 L58.22,44.13 L57.92,44.52 Z M52.055,43.2 C52.6850032,44.1400047 53.4799952,44.61 54.44,44.61 C55.4000048,44.61 56.3999948,44.2700034 57.44,43.59 C57.9800027,43.2299982 58.25,42.7700028 58.25,42.21 L58.25,35.04 C57.4299959,34.0599951 56.1500087,33.57 54.41,33.57 C53.5499957,33.57 52.8700025,33.8499972 52.37,34.41 C51.5299958,35.3500047 51.11,36.8149901 51.11,38.805 C51.11,40.79501 51.4249969,42.2599953 52.055,43.2 L52.055,43.2 Z M65.9,31.65 C65.9,30.049992 66.4699943,28.7400051 67.61,27.72 C68.7500057,26.6999949 70.2099911,26.19 71.99,26.19 C73.1700059,26.19 74.4099935,26.4799971 75.71,27.06 C76.3900034,27.3800016 76.9499978,27.8699967 77.39,28.53 C77.8300022,29.1900033 78.05,29.9799954 78.05,30.9 C78.05,32.700009 77.2700078,34.1799942 75.71,35.34 C75.2499977,35.6600016 74.8800014,35.82 74.6,35.82 L74.6,36.09 C74.7200006,36.09 74.879999,36.1399995 75.08,36.24 C76.280006,36.8600031 77.1999968,37.5499962 77.84,38.31 C78.4800032,39.0700038 78.8,40.0199943 78.8,41.16 C78.8,42.8200083 78.1550065,44.1699948 76.865,45.21 C75.5749936,46.2500052 73.8900104,46.77 71.81,46.77 C70.409993,46.77 69.0300068,46.5000027 67.67,45.96 C66.9299963,45.6599985 66.3250024,45.1700034 65.855,44.49 C65.3849977,43.8099966 65.15,42.9900048 65.15,42.03 C65.15,40.0899903 66.1199903,38.4700065 68.06,37.17 C68.6000027,36.8499984 68.9799989,36.69 69.2,36.69 L69.2,36.42 C69.0799994,36.42 68.920001,36.3700005 68.72,36.27 C66.8399906,35.1299943 65.9,33.5900097 65.9,31.65 L65.9,31.65 Z M69.32,28.71 C68.7799973,29.3900034 68.51,30.0799965 68.51,30.78 C68.51,31.4800035 68.6249989,32.0449979 68.855,32.475 C69.0850012,32.9050022 69.4499975,33.2999982 69.95,33.66 C70.7700041,34.2400029 71.7899939,34.7899974 73.01,35.31 C74.6900084,34.1699943 75.53,32.7900081 75.53,31.17 C75.53,30.0499944 75.1850035,29.190003 74.495,28.59 C73.8049966,27.989997 72.9050056,27.69 71.795,27.69 C70.6849945,27.69 69.8600027,28.0299966 69.32,28.71 L69.32,28.71 Z M75.02,44.115 C75.6600032,43.4449967 75.98,42.7500036 75.98,42.03 C75.98,41.3099964 75.8500013,40.7200023 75.59,40.26 C75.3299987,39.7999977 74.9200028,39.3900018 74.36,39.03 C73.4999957,38.4699972 72.4300064,37.9400025 71.15,37.44 C71.0099993,37.3799997 70.9100003,37.3400001 70.85,37.32 C70.5099983,37.4400006 70.040003,37.7499975 69.44,38.25 C68.2599941,39.2700051 67.67,40.3749941 67.67,41.565 C67.67,42.755006 68.069996,43.6449971 68.87,44.235 C69.670004,44.825003 70.7349934,45.12 72.065,45.12 C73.3950067,45.12 74.3799968,44.7850034 75.02,44.115 L75.02,44.115 Z" fill="#FFFFFF" mask="url(#mask-2)"></path>
        </g>
    </g>
</svg>