<?xml version="1.0" encoding="UTF-8" standalone="no"?>
<svg width="118px" height="153px" viewBox="0 0 118 153" version="1.1" xmlns="http://www.w3.org/2000/svg" xmlns:xlink="http://www.w3.org/1999/xlink">
    <title>wd9</title>
    <defs>
        <rect id="path-1" x="2" y="2" width="100" height="135" rx="1"></rect>
    </defs>
    <g id="Page-1" stroke="none" stroke-width="1" fill="none" fill-rule="evenodd">
        <g id="wd9">
            <g id="Last-Page-+-Second-Page" transform="translate(11.000000, 10.000000)" stroke="#FFFFFF" stroke-width="4" stroke-linecap="round" stroke-linejoin="round">
                <path d="M6,141 L104.5,141 L104.5,8" id="Last-Page"></path>
                <path d="M0,134 L97.5,134 L97.5,0" id="Second-Page"></path>
            </g>
            <mask id="mask-2" fill="white">
                <use xlink:href="#path-1"></use>
            </mask>
            <use id="Page" stroke="#FFFFFF" stroke-width="4" stroke-linecap="round" stroke-linejoin="round" xlink:href="#path-1"></use>
            <g id="person" mask="url(#mask-2)" stroke="#FFFFFF" stroke-width="3">
                <g transform="translate(5.000000, 79.000000)">
                    <path d="M20.2871539,15.9107448 C24.0139582,18.197195 26.5,22.3104269 26.5,27.0059089 L26.5,30.3414114 C24.1696153,31.1650842 22.5,33.3875623 22.5,36 C22.5,38.6124377 24.1696153,40.8349158 26.5,41.6585886 L26.5,41.6585886 L26.5,56.9940911 C26.5,64.1770562 20.6812804,70 13.5,70 C6.32029825,70 0.5,64.1786248 0.5,56.9940911 L0.5,27.0059089 C0.5,22.3111723 2.98566372,18.1974151 6.71281154,15.9107051 L6.71281154,15.9107051" id="Rectangle-14"></path>
                    <circle id="Oval-3" cx="13.5" cy="12" r="9"></circle>
                    <path d="M34.7128115,25.9107051 L34.7128115,25.9107051 C30.9856637,28.1974151 28.5,32.3111723 28.5,37.0059089 L28.5,40.3414114 C30.8303847,41.1650842 32.5,43.3875623 32.5,46 C32.5,48.6124377 30.8303847,50.8349158 28.5,51.6585886 L28.5,51.6585886 L28.5,66.9940911 C28.5,74.1786248 34.3202983,80 41.5,80 C48.6812804,80 54.5,74.1770562 54.5,66.9940911 L54.5,51.6585886 L54.5,51.6585886 C52.1696153,50.8349158 50.5,48.6124377 50.5,46 C50.5,43.3875623 52.1696153,41.1650842 54.5,40.3414114 L54.5,37.0059089 C54.5,32.3104269 52.0139582,28.197195 48.2871539,25.9107448" id="Rectangle-14-Copy"></path>
                    <circle id="Oval-3-Copy-2" cx="41.5" cy="20" r="9"></circle>
                    <path d="M70.1662444,68 L68.8337556,68 C62.0220105,68 56.5,62.4772458 56.5,55.6759152 L56.5,39.6585886 C58.8303847,38.8349158 60.5,36.6124377 60.5,34 C60.5,31.3875623 58.8303847,29.1650842 56.5,28.3414114 L56.5,28.3414114 L56.5,24.3240848 C56.5,19.8101321 58.9251572,15.8629904 62.5480394,13.7161937 L62.5480394,13.7161937" id="Rectangle-14-Copy-2"></path>
                    <path d="M86.2871539,23.9107448 C90.0139582,26.197195 92.5,30.3104269 92.5,35.0059089 L92.5,64.9940911 C92.5,72.1770562 86.6812804,78 79.5,78 C72.3202983,78 66.5,72.1786248 66.5,64.9940911 L66.5,49.6585886 C68.8303847,48.8349158 70.5,46.6124377 70.5,44 C70.5,41.3875623 68.8303847,39.1650842 66.5,38.3414114 L66.5,38.3414114 L66.5,35.0059089 C66.5,30.3111723 68.9856637,26.1974151 72.7128115,23.9107051 L72.7128115,23.9107051" id="Rectangle-14-Copy-3"></path>
                    <path d="M78.5,9 C78.5,4.02943725 74.4705627,0 69.5,0 C64.5294373,0 60.5,4.02943725 60.5,9 C60.5,13.9705627 64.5294373,18 69.5,18 L69.5,18" id="Oval-3-Copy-3"></path>
                    <circle id="Oval-3-Copy-11" cx="79.5" cy="19" r="9"></circle>
                    <path d="M26.5,49 L26.5,49 C28.1568542,49 29.5,47.6568542 29.5,46 C29.5,44.3431458 28.1568542,43 26.5,43" id="Oval-3-Copy-10"></path>
                    <path d="M53.5,49 L53.5,49 C55.1568542,49 56.5,47.6568542 56.5,46 C56.5,44.3431458 55.1568542,43 53.5,43" id="Oval-3-Copy-15" transform="translate(55.000000, 46.000000) scale(-1, 1) translate(-55.000000, -46.000000) "></path>
                    <path d="M54.2151785,37 L54.5,37 C56.1568542,37 57.5,35.6568542 57.5,34 C57.5,32.3431458 56.1568542,31 54.5,31 C53.5906836,31 52.8706466,31.3610505 52.3204846,32" id="Oval-3-Copy-12"></path>
                    <path d="M25.6117904,38.4927979 L27.5,39 C29.1568542,39 30.5,37.6568542 30.5,36 C30.5,34.3431458 29.1568542,33 27.5,33 C26.5906836,33 25.8706466,33.3610505 25.3204846,34" id="Oval-3-Copy-14" transform="translate(27.910242, 36.000000) scale(-1, 1) translate(-27.910242, -36.000000) "></path>
                    <circle id="Oval-3-Copy-13" cx="64.5" cy="44" r="3"></circle>
                </g>
            </g>
            <path d="M31.21,46.77 L26.86,34.56 C26.7199993,34.1799981 26.5800007,33.9400005 26.44,33.84 C26.2999993,33.7399995 25.9000033,33.6200007 25.24,33.48 L25.42,32.31 L30.97,32.31 L31.09,33.48 L29.77,33.9 C29.6299993,33.9200001 29.56,33.9899994 29.56,34.11 C29.56,34.1300001 29.5999996,34.2599988 29.68,34.5 L32.44,43.14 C32.5200004,43.340001 32.56,43.5799986 32.56,43.86 L32.56,43.98 L32.8,43.98 C32.8,43.7599989 32.8799992,43.4600019 33.04,43.08 L35.77,36.27 L35.2,34.56 C35.0799994,34.1999982 34.9550007,33.9650006 34.825,33.855 C34.6949994,33.7449995 34.3800025,33.6200007 33.88,33.48 L34.06,32.31 L38.98,32.31 L39.1,33.48 L37.78,33.9 C37.6399993,33.9200001 37.57,33.9899994 37.57,34.11 C37.57,34.1300001 37.6099996,34.2599988 37.69,34.5 L40.42,43.14 C40.5000004,43.3800012 40.54,43.6199988 40.54,43.86 L40.54,43.98 L40.78,43.98 C40.78,43.8599994 40.8599992,43.5600024 41.02,43.08 L43.75,35.25 C43.8700006,34.9299984 43.93,34.7150006 43.93,34.605 C43.93,34.4949995 43.9250001,34.4150003 43.915,34.365 C43.905,34.3149998 43.8800002,34.2650003 43.84,34.215 C43.7999998,34.1649998 43.7650002,34.1250002 43.735,34.095 C43.7049999,34.0649999 43.6550004,34.0300002 43.585,33.99 C43.5149997,33.9499998 43.4550003,33.9150002 43.405,33.885 C43.3549998,33.8549999 43.2800005,33.8200002 43.18,33.78 C43.0799995,33.7399998 42.9950004,33.7100001 42.925,33.69 C42.8549997,33.6699999 42.7600006,33.6350003 42.64,33.585 C42.5199994,33.5349998 42.4200004,33.5000001 42.34,33.48 L42.52,32.31 L47.44,32.31 L47.56,33.48 C46.9199968,33.6400008 46.5300007,33.7449998 46.39,33.795 C46.2499993,33.8450003 46.1700001,33.9099996 46.15,33.99 L41.17,46.77 L39.22,46.77 L36.76,39.21 C36.6599995,38.9099985 36.61,38.6400012 36.61,38.4 L36.37,38.4 C36.37,38.6200011 36.3100006,38.8799985 36.19,39.18 L33.16,46.77 L31.21,46.77 Z M58.42,44.52 C57.2599942,46.0200075 55.8700081,46.77 54.25,46.77 C52.6299919,46.77 51.3000052,46.1250065 50.26,44.835 C49.2199948,43.5449936 48.7,41.7800112 48.7,39.54 C48.7,37.2999888 49.2899941,35.4600072 50.47,34.02 C51.6500059,32.5799928 53.2999894,31.86 55.42,31.86 C56.8800073,31.86 57.9599965,32.1199974 58.66,32.64 L58.87,32.55 C58.7899996,32.2299984 58.75,31.7900028 58.75,31.23 L58.75,26.19 C58.75,25.7699979 58.5450021,25.4550011 58.135,25.245 C57.724998,25.034999 56.9900053,24.8600007 55.93,24.72 L56.11,23.76 C58.2500107,23.4799986 59.919994,23.34 61.12,23.34 L61.45,23.64 L61.45,43.56 C61.45,44.0800026 61.5749988,44.444999 61.825,44.655 C62.0750013,44.8650011 62.7099949,45.069999 63.73,45.27 L63.55,46.23 L59.95,46.62 C59.749999,46.62 59.5300012,46.420002 59.29,46.02 C59.0499988,45.619998 58.93,45.2600016 58.93,44.94 C58.93,44.6199984 58.9399999,44.3800008 58.96,44.22 L58.72,44.13 L58.42,44.52 Z M52.555,43.2 C53.1850032,44.1400047 53.9799952,44.61 54.94,44.61 C55.9000048,44.61 56.8999948,44.2700034 57.94,43.59 C58.4800027,43.2299982 58.75,42.7700028 58.75,42.21 L58.75,35.04 C57.9299959,34.0599951 56.6500087,33.57 54.91,33.57 C54.0499957,33.57 53.3700025,33.8499972 52.87,34.41 C52.0299958,35.3500047 51.61,36.8149901 51.61,38.805 C51.61,40.79501 51.9249968,42.2599953 52.555,43.2 L52.555,43.2 Z M67.45,40.98 C66.3299944,39.7999941 65.77,38.3000091 65.77,36.48 C65.77,34.6599909 66.3849939,33.1150064 67.615,31.845 C68.8450062,30.5749937 70.4399902,29.94 72.4,29.94 C74.3600098,29.94 75.9199942,30.644993 77.08,32.055 C78.2400058,33.4650071 78.82,35.3299884 78.82,37.65 C78.82,40.4900142 77.9800084,43.1899872 76.3,45.75 C75.4599958,47.0300064 74.2900075,48.1149956 72.79,49.005 C71.2899925,49.8950045 69.5700097,50.4299991 67.63,50.61 L67.42,49.26 C69.7400116,48.7199973 71.5399936,47.8050065 72.82,46.515 C74.1000064,45.2249936 75.0099973,43.4200116 75.55,41.1 L75.31,41.01 C74.3699953,42.1700058 73.105008,42.75 71.515,42.75 C69.9249921,42.75 68.5700056,42.1600059 67.45,40.98 L67.45,40.98 Z M71.92,31.41 C70.8199945,31.41 69.9950028,31.8299958 69.445,32.67 C68.8949973,33.5100042 68.62,34.6449929 68.62,36.075 C68.62,37.5050072 68.9849964,38.6299959 69.715,39.45 C70.4450037,40.2700041 71.2949952,40.68 72.265,40.68 C73.2350049,40.68 74.1299959,40.4600022 74.95,40.02 C75.4300024,39.7599987 75.7199995,39.3900024 75.82,38.91 C75.9400006,38.4299976 76,37.8400035 76,37.14 C76,35.4199914 75.6650034,34.0350053 74.995,32.985 C74.3249967,31.9349948 73.3000069,31.41 71.92,31.41 L71.92,31.41 Z" fill="#FFFFFF" mask="url(#mask-2)"></path>
        </g>
    </g>
</svg>